<svg xmlns="http://www.w3.org/2000/svg" viewBox="0 0 57.48 60.32"><circle fill="#e8e5d3" cx="28.74" cy="31.58" r="28.74"/><path fill="#998d50" d="M15.74 44.38c-2.2-1.78-4.28-2.82-7.34-1.95a7.32 7.32 0 0 0 3.14 4.14 20.24 20.24 0 0 0 7.95 2.78s-.6-2.35-3.8-4.97zm21-15.96c-6.17 1.88-9 5.5-11.92 9.78 2.18.5 10.63.7 14.1-.3 8.32-2.4 13.6-10.64 13.6-10.64s-8.47-1.08-15.78 1.16zM26.3 40.05c-4.77-1.14-7.3.5-10.3 2.65a39.83 39.83 0 0 0 8.93 3.74c5.66 1.35 12.53-.76 12.53-.76s-5.5-4.28-11.17-5.63zm16.2-23.22c-2 6.55-7.1 9-11.36 11.27.1-3.53.2-9.66 1.3-13.34C34.78 7 42.3 0 42.3 0s2.53 9.07.2 16.83zM28 28.55c-.77 4.34-3.7 6.36-5.7 8.16a41.85 41.85 0 0 1 .32-9.1c.92-5.1 4.92-10.2 4.92-10.2A32.43 32.43 0 0 1 28 28.6zm-8.06 7.13c-.6 3.23-2.52 4.15-4.5 5.36a28.92 28.92 0 0 1 .28-6.48 19.63 19.63 0 0 1 3.7-7.44 22.92 22.92 0 0 1 .52 8.56z"/></svg>