<?xml version="1.0" standalone="no"?>
<!DOCTYPE svg PUBLIC "-//W3C//DTD SVG 20010904//EN"
 "http://www.w3.org/TR/2001/REC-SVG-20010904/DTD/svg10.dtd">
<svg version="1.0" xmlns="http://www.w3.org/2000/svg"
 width="1024.000000pt" height="1024.000000pt" viewBox="0 0 1024.000000 1024.000000"
 preserveAspectRatio="xMidYMid meet">
<metadata>
Created by potrace 1.11, written by Peter Selinger 2001-2013
</metadata>
<g transform="translate(0.000000,1024.000000) scale(0.100000,-0.100000)"
fill="#000000" stroke="none">
<path d="M7521 9479 c-120 -13 -311 -53 -420 -89 -427 -139 -706 -425 -786
-803 -8 -38 -15 -79 -15 -93 l0 -24 435 0 435 0 -6 43 c-3 23 -1 85 5 137 43
354 243 533 591 533 209 -1 336 -49 466 -178 70 -68 89 -95 132 -185 98 -202
132 -390 139 -782 l6 -277 -124 63 c-143 74 -262 116 -406 146 -268 54 -642
42 -915 -30 -399 -104 -698 -329 -855 -640 -147 -292 -160 -679 -34 -1006 120
-311 395 -559 737 -667 171 -54 233 -62 469 -62 192 1 229 4 295 22 348 97
607 315 835 701 55 94 62 102 91 102 l31 0 6 -114 c8 -145 46 -332 100 -494
l42 -127 344 -3 343 -2 -6 22 c-44 153 -88 425 -106 647 -6 79 -10 482 -10
973 0 699 -2 838 -14 838 -10 0 -15 29 -20 123 -14 243 -61 439 -147 609 -56
112 -90 159 -173 246 -198 206 -450 319 -812 367 -127 17 -508 19 -653 4z
m439 -1894 c188 -29 354 -92 484 -185 l58 -43 -4 -181 c-5 -162 -8 -193 -36
-297 -60 -225 -153 -401 -282 -530 -164 -165 -327 -233 -555 -233 -296 1 -536
125 -673 349 -85 139 -115 361 -73 537 71 301 297 507 631 578 107 23 318 26
450 5z"/>
<path d="M964 9353 c42 -351 42 -3286 0 -3680 l-5 -53 421 0 422 0 -6 83 c-43
575 -43 3043 0 3615 l6 82 -422 0 -422 0 6 -47z"/>
<path d="M2721 9348 c-35 -178 -81 -432 -78 -435 2 -2 44 3 93 11 123 21 271
33 604 51 157 8 306 18 332 21 47 6 47 6 53 -28 3 -18 10 -303 15 -633 9 -604
0 -1542 -20 -2085 -5 -146 -12 -332 -15 -415 -3 -82 -8 -165 -11 -182 l-5 -33
422 0 421 0 -6 88 c-26 366 -46 1261 -46 2022 1 574 12 1256 22 1266 6 5 352
-16 406 -26 82 -14 692 -63 699 -56 4 3 -13 113 -38 244 l-44 237 -1397 3
-1397 2 -10 -52z"/>
<path d="M7690 4678 c-391 -23 -745 -183 -1020 -458 -334 -334 -511 -768 -550
-1347 -24 -355 23 -734 130 -1038 96 -271 277 -547 469 -711 447 -385 1103
-512 1666 -324 399 134 747 474 929 910 69 164 71 150 -22 150 l-79 0 -27 -39
c-15 -21 -57 -68 -94 -103 -261 -252 -587 -381 -957 -381 -118 1 -156 5 -239
27 -500 131 -846 616 -906 1271 -13 140 -13 273 0 450 46 617 241 1028 564
1188 102 50 179 67 314 67 492 0 765 -309 766 -867 0 -84 2 -153 6 -153 3 0
156 7 340 15 184 8 354 15 378 15 l42 0 0 48 c0 202 -106 512 -242 709 -279
404 -813 611 -1468 571z"/>
<path d="M964 4538 c42 -395 42 -3330 0 -3681 l-6 -47 1136 0 c902 0 1136 3
1136 13 0 14 77 603 86 660 6 36 5 37 -24 37 -16 0 -76 -22 -133 -49 -273
-130 -653 -215 -1113 -251 -71 -6 -155 -10 -186 -10 l-57 0 -7 83 c-13 181
-18 1680 -7 2147 12 477 25 856 37 1048 l6 102 -437 0 -436 0 5 -52z"/>
<path d="M4254 4523 c42 -478 42 -3162 0 -3645 l-6 -68 422 0 422 0 -6 68
c-42 483 -42 3167 0 3645 l6 67 -422 0 -422 0 6 -67z"/>
</g>
</svg>
