<svg xmlns="http://www.w3.org/2000/svg" xmlns:xlink="http://www.w3.org/1999/xlink" viewBox="0 0 370 350"><defs><style>.cls-1,.cls-13,.cls-17{fill:none;}.cls-2{isolation:isolate;}.cls-3,.cls-4{fill:#27aae1;}.cls-3,.cls-6{opacity:0.2;}.cls-5{clip-path:url(#clip-path);}.cls-15,.cls-6{fill:#231f20;mix-blend-mode:multiply;}.cls-12,.cls-7{fill:#fff;}.cls-8{fill:#28a8e0;}.cls-9{fill:#e63f31;}.cls-10{fill:#218fb2;}.cls-11{fill:#e5e5e4;}.cls-12{opacity:0.5;}.cls-13,.cls-17{stroke:#fff;}.cls-13{stroke-width:0.62px;}.cls-14{fill:#c3996b;}.cls-15{opacity:0.1;}.cls-16{fill:#927357;}.cls-17{stroke-linecap:round;stroke-miterlimit:10;stroke-width:2px;stroke-dasharray:5;}.cls-18{fill:#a57d50;}.cls-19{fill:#d3b82a;}.cls-20{fill:#fee000;}.cls-21{fill:#d3ad2a;}.cls-22{fill:#b9992f;}.cls-23{fill:#97802f;}</style><clipPath id="clip-path"><circle class="cls-1" cx="185" cy="175" r="133.88"/></clipPath></defs><title>smaArtboard 1 copy 30</title><g class="cls-2"><g id="Layer_1" data-name="Layer 1"><circle class="cls-3" cx="184.8" cy="174.93" r="166.46"/><circle class="cls-4" cx="184.8" cy="174.93" r="133.88"/><g class="cls-5"><path class="cls-6" d="M15.34,253.35l.37.2c.56.3,1.13.59,1.69.86-3.28,1.78-8.44,5.17-7.72,10.67.44,3.37,3.29,7,10,7a19.66,19.66,0,0,0,2.69-.18,27,27,0,0,0,6.79-2c.61,1.69,2.31,4.42,7,5.08a9.94,9.94,0,0,0,1.4.1c4.37,0,7.9-2.82,10.43-5.57a90,90,0,0,0,23.5,7,95.51,95.51,0,0,0,14.92,1.16h0A102.25,102.25,0,0,0,110,274.81a114.12,114.12,0,0,0,20.79-7.17l11.16,41.25h44.53L173.1,255.14a111,111,0,0,0,11.7.65h1a98.9,98.9,0,0,0,37.74-7.63,90,90,0,0,0,21.14-12.43c2.5,1.67,5.62,3.21,9,3.21h0a10.15,10.15,0,0,0,3.81-.72c4.44-1.78,5.44-4.84,5.63-6.63a31.58,31.58,0,0,0,5,.45,20.72,20.72,0,0,0,2.11-.11c2.33-.24,6.6-1.09,9-4.1a7.42,7.42,0,0,0,1.62-5.51c-.61-5.51-6.42-7.57-10.05-8.51.48-.4,1-.81,1.44-1.24l.31-.28c2.07-1.84,5.52-4.92,5.82-9.37a7.81,7.81,0,0,0-2-6.08,7.47,7.47,0,0,0-5.66-2.3c-3.46,0-8.21,2-14.55,6-7.16,4.56-11.78,9.5-16.34,15.25-5.08-3.61-10.27-6.47-15.07-6.47a9.69,9.69,0,0,0-7,2.74l-.12.12a8.15,8.15,0,0,0-1.79,9c1.5,3.49,5.41,6,9.69,7.78a76.64,76.64,0,0,1-8.6,4.25,82.91,82.91,0,0,1-32.14,6.25h-.41c.62-.78,1.24-1.61,1.87-2.54a5.27,5.27,0,0,0,5.28-1.69,53.34,53.34,0,0,0,5.79-8.68h.3a5.27,5.27,0,0,0,4.42-2.4,71.22,71.22,0,0,0,9.08-23.06c.14-.1.27-.21.4-.32a21,21,0,0,0,6.38-13.93,23.52,23.52,0,0,0-2.15-11,5.26,5.26,0,0,0,1.35-6.14,40.25,40.25,0,0,0-15.18-16.1A5.26,5.26,0,0,0,200,148a39,39,0,0,0-19-6.73l-3.79-7.44h.23a5.26,5.26,0,0,0,4.57-7.68c-.83-1.59-3.13-4.26-9.54-6.16-.16-12.32-7-26.19-7.9-27.93a5.26,5.26,0,0,0-5.85-2.75c-23.85,5.38-31.63,19.16-34.13,26.64-1.47.37-3.2.86-5.11,1.51a5.25,5.25,0,0,0-3.58-.84,42.07,42.07,0,0,0-27.11,17.63,89.15,89.15,0,0,0-17.18-1.71c-13.56,0-25,3.25-34.11,9.67a5.26,5.26,0,0,0-2.17,5.06C35.56,148.7,38,161,60.58,183c-4,6-10.73,18.13-10.41,29.51A5.26,5.26,0,0,0,54,217.47c-.16,7.53,1.33,15.41,6.35,21.71-4.39,1.32-8.54,5.18-12.47,9.73-5.8-4.49-11.49-8.18-19.56-10.91-5.22-1.76-9.43-2.66-12.52-2.66-3.41,0-5.93,1.08-7.49,3.22a7.66,7.66,0,0,0-.91,7.08C8.8,249.89,12.89,252.05,15.34,253.35Zm56.05-1.88A44.53,44.53,0,0,0,80.26,261,79.36,79.36,0,0,1,65,258.26,22.18,22.18,0,0,0,71.39,251.46Z"/><path class="cls-7" d="M21,246.5l.37.2c.56.3,1.13.59,1.69.86-3.28,1.78-8.44,5.17-7.72,10.67.44,3.37,3.29,7,10,7A19.66,19.66,0,0,0,28,265a27,27,0,0,0,6.79-2c.61,1.69,2.31,4.42,7,5.08a9.94,9.94,0,0,0,1.4.1c4.37,0,7.9-2.82,10.43-5.57a90,90,0,0,0,23.5,7,95.51,95.51,0,0,0,14.92,1.16h0A102.25,102.25,0,0,0,115.66,268a114.12,114.12,0,0,0,20.79-7.17l13,48.09h44.37l-15-60.59a111,111,0,0,0,11.7.65h1a98.9,98.9,0,0,0,37.74-7.63,90,90,0,0,0,21.14-12.43c2.5,1.67,5.62,3.21,9,3.21h0a10.15,10.15,0,0,0,3.81-.72c4.44-1.78,5.44-4.84,5.63-6.63a31.58,31.58,0,0,0,5,.45,20.72,20.72,0,0,0,2.11-.11c2.33-.24,6.6-1.09,9-4.1a7.42,7.42,0,0,0,1.62-5.51c-.61-5.51-6.42-7.57-10.05-8.51.48-.4,1-.81,1.44-1.24l.31-.28c2.07-1.84,5.52-4.92,5.82-9.37a7.81,7.81,0,0,0-2-6.08,7.47,7.47,0,0,0-5.66-2.3c-3.46,0-8.21,2-14.55,6-7.16,4.56-11.78,9.5-16.34,15.25-5.08-3.61-10.27-6.47-15.07-6.47a9.69,9.69,0,0,0-7,2.74l-.12.12a8.15,8.15,0,0,0-1.79,9c1.5,3.49,5.41,6,9.69,7.78a76.64,76.64,0,0,1-8.6,4.25,82.91,82.91,0,0,1-32.14,6.25h-.41c.62-.78,1.24-1.61,1.87-2.54a5.27,5.27,0,0,0,5.28-1.69,53.34,53.34,0,0,0,5.79-8.68h.3a5.27,5.27,0,0,0,4.42-2.4,71.22,71.22,0,0,0,9.08-23.06c.14-.1.27-.21.4-.32A21,21,0,0,0,223.61,180a23.52,23.52,0,0,0-2.15-11,5.26,5.26,0,0,0,1.35-6.14,40.25,40.25,0,0,0-15.18-16.1,5.26,5.26,0,0,0-1.89-5.57,39,39,0,0,0-19-6.73L182.93,127h.23a5.26,5.26,0,0,0,4.57-7.68c-.83-1.59-3.13-4.26-9.54-6.16-.16-12.32-7-26.19-7.9-27.93a5.26,5.26,0,0,0-5.85-2.75c-23.85,5.38-31.63,19.16-34.13,26.64-1.47.37-3.2.86-5.11,1.51a5.25,5.25,0,0,0-3.58-.84,42.07,42.07,0,0,0-27.11,17.63,89.15,89.15,0,0,0-17.18-1.71c-13.56,0-25,3.25-34.11,9.67a5.26,5.26,0,0,0-2.17,5.06c.2,1.38,2.6,13.67,25.22,35.71-4,6-10.73,18.13-10.41,29.51a5.26,5.26,0,0,0,3.88,4.93c-.16,7.53,1.33,15.41,6.35,21.71-4.39,1.32-8.54,5.18-12.47,9.73-5.8-4.49-11.49-8.18-19.56-10.91-5.22-1.76-9.43-2.66-12.52-2.66-3.41,0-5.93,1.08-7.49,3.22a7.66,7.66,0,0,0-.91,7.08C14.5,243,18.6,245.21,21,246.5Zm56.05-1.88A44.53,44.53,0,0,0,86,254.15a79.36,79.36,0,0,1-15.31-2.73A22.18,22.18,0,0,0,77.09,244.62Z"/><path class="cls-7" d="M68.74,228.91a3.48,3.48,0,0,0-2.59-4.41.36.36,0,0,1-.19-.41.37.37,0,0,1,.16-.24.34.34,0,0,1,.31,0l.06,0A3.42,3.42,0,0,0,71,221.74l2.58-8A4.93,4.93,0,0,0,74,212.6c0-.08,0-.16,0-.24s0-.13,0-.19c.38-3.54-4-5.35-5.85-6.14a73,73,0,0,0-12.36-3.59c-1.89-.4-3.77-.73-5.57-1a3.42,3.42,0,0,0-2.59.68,3.8,3.8,0,0,1-1.06,0,3.61,3.61,0,0,1-1-.22,3.42,3.42,0,0,0-2.48-1.15c-2.08,0-6.83-.14-7.91,3.27l0,.07s0,.08,0,.12,0,.14-.07.22,0,.16,0,.24,0,.08,0,.12L34.52,210a3.42,3.42,0,0,0,.27,1.71,3.43,3.43,0,0,0-.6,1.63l-.7,7a3.43,3.43,0,0,0,.54,2.22,3.42,3.42,0,0,0-1,2.07l-1.13,11.32c-.53,3.46,3.53,5.14,5.08,5.78.47.2,1,.39,1.53.58l.1,0A65.53,65.53,0,0,0,47,244.54c1.58.33,3.15.61,4.66.83a3.38,3.38,0,0,0,2.71-.74,3.54,3.54,0,0,0,.47-.48,3.54,3.54,0,0,0,.37.53,3.42,3.42,0,0,0,2.61,1.2,13.7,13.7,0,0,0,2.92-.26,3.42,3.42,0,0,0,3.4-2.37Z"/><path class="cls-8" d="M114.44,262.84a114,114,0,0,0,32.21-13.32l-3-5c-51,30.43-90.12,5.54-90.51,5.29L50,254.68c.43.28,10.83,7,28,9.71A93.91,93.91,0,0,0,114.44,262.84Z"/><path class="cls-8" d="M191.45,243.67a93.88,93.88,0,0,0,35.74-7.22c16-6.76,24.5-15.76,24.86-16.14l-4.23-3.94c-.08.09-8.17,8.61-23.14,14.87-13.78,5.76-36.41,10.72-66,1.69L157,238.46A114.06,114.06,0,0,0,191.45,243.67Z"/><path class="cls-9" d="M250,222c2.7,2.22,7.47,6,11.22,4.51,7.25-2.9-4.22-9.22-7.44-11.19a93.42,93.42,0,0,0,13.86,3.91,27.88,27.88,0,0,0,7.7.65c1.87-.19,6.26-1.13,6-3.79s-5.39-3.83-7.48-4.33a25.65,25.65,0,0,0-18,2.55c4-2.26,7.88-4.61,11.65-7.19a66.19,66.19,0,0,0,6.9-5.28c1.67-1.49,4.23-3.62,4.39-6.08.45-6.92-12.12,1.15-14.1,2.4-7.73,4.93-12.27,10.37-17.77,17.61l-.39.51c-3.61-2.75-14.8-11.78-19.35-7.3-5.71,6,14.29,12,19.07,10.66Z"/><polygon class="cls-8" points="188.41 308.88 167.19 223.32 134.02 231.67 154.91 308.88 188.41 308.88"/><polygon class="cls-10" points="146.65 249.52 153.14 259.66 157.32 248.33 166.45 257.17 164.66 244.56 146.65 249.52"/><path class="cls-9" d="M70.48,186.84S57.18,216.61,72,231c0,0-3.07-9.44-1.69-14.2.89,3.47,7.63,27.82,22.88,35.76,0,0-7.18-10.38-8.72-15.61,0,0,10.92,20.3,44.39,18.16a39.47,39.47,0,0,1-15.69-6.71c8.36,3.94,41.49,8.57,68.17-14.29.46-.37,1-.86,1.68-1.48l.23-.21h0l.62-.62a40.94,40.94,0,0,0,9.74-18.15s.66,9.53-.35,11.31c0,0,9.53-11.16,9.24-22.08,0,0,1.18,9.54.86,11.56,0,0,9.67-14.89,9.16-31,0,0,1.55,5.34,1.24,6.53,0,0,12.06-10.73-2.66-27.19A9.29,9.29,0,0,1,218,165s-6.14-13.61-23.68-18.24c0,0,6.06-2.07,8.22-1.41a34,34,0,0,0-19.13-5.8l-9-17.66,8.63-.17s-1.49-2.87-10.4-4.47c2-11.92-7-29.65-7-29.65-25,5.63-30,20.76-31,26a54,54,0,0,0-19.65,7.93,22.84,22.84,0,0,1,7.39-6.5A37.07,37.07,0,0,0,97,133.41S67.1,125,46.27,139.7c0,0,1.82,12.32,26.91,35.79,0,0-12.44,16.06-12.05,30.06C61.13,205.54,66.07,191.15,70.48,186.84Zm.29,29.41-.31.08a4.76,4.76,0,0,1,.23-.51S70.72,216,70.77,216.25Z"/><g id="_Mouth" data-name="+Mouth"><path class="cls-7" d="M143.58,226a67.89,67.89,0,0,0,22.6-8.33.57.57,0,0,0-.61-1c-.21.13-21.06,13.14-40.43,7.31-10.49-3.16-18.71-11.24-24.42-24a.57.57,0,1,0-1,.46c5.85,13.09,14.31,21.38,25.14,24.64A41.69,41.69,0,0,0,143.58,226Z"/></g><path class="cls-7" d="M169.92,176.41c-7.71,5.88,13.87,6.52,13.87,6.52s2.88-7.3,2.68-13S177.63,170.53,169.92,176.41Z"/><path class="cls-7" d="M86.78,142.46S67.11,136,56.62,143.57c0,0,8.7,14.92,19,19.42C75.59,163,79.53,150.66,86.78,142.46Z"/><path class="cls-7" d="M160.92,96.43c-14,4.92-19.49,18-17.1,18.16,5.54.46,21.21,6.87,21.21,6.87C169.51,113,160.92,96.43,160.92,96.43Z"/><path class="cls-7" d="M160.61,160.43c-5.43-12.48-21.69-26.9-32.06-22.41s-10.92,26.18-5.49,38.67,18.24,19,28.6,14.48S166,172.92,160.61,160.43Z"/><path class="cls-9" d="M157,162.35s.63,27.11-26,15.41C131,177.76,153.11,182.81,157,162.35Z"/><path class="cls-7" d="M185.59,148.09s.57,18.93-16.27,11.05C169.33,159.14,183.27,162.43,185.59,148.09Z"/><path class="cls-7" d="M91.48,206s3.13-18.68,18.11-7.67C109.59,198.36,96.56,192.42,91.48,206Z"/><path class="cls-9" d="M52.42,255.79c-2.09,2.81-5.81,7.63-9.81,7.06-7.73-1.08,1.89-10,4.54-12.65a93.42,93.42,0,0,1-12.52,7.12,27.88,27.88,0,0,1-7.32,2.47c-1.86.26-6.34.41-6.69-2.26s4.31-5,6.23-6a25.65,25.65,0,0,1,18.06-1.83c-4.39-1.24-8.76-2.59-13-4.19a66.19,66.19,0,0,1-8-3.48c-2-1.05-5-2.51-5.72-4.85-2.1-6.61,12-1.79,14.26-1,8.69,2.93,14.4,7.13,21.47,12.84l.5.4c2.84-3.53,11.55-15,17-11.72,7,4.47-11,15.1-16,14.92Z"/><path class="cls-7" d="M244,205.15s-6,35-4.86,43.06c0,0,16.05,13.25,36.72,5l9.69-41.5Z"/><ellipse class="cls-11" cx="264.75" cy="208.43" rx="3.3" ry="21.03" transform="translate(17.54 437.39) rotate(-81.02)"/><path class="cls-12" d="M287.92,188.84c-.9-3.55-3.7-7-5.38-10.26-3.13-6-3.33-12.63-2.42-19.26.06-.44.85-5,1.58-7.77a4.46,4.46,0,0,0,4.51-3.57c.28-2.27-1.72-4.4-4.44-4.73l-16.91-2.06c-2.72-.33-5.17,1.26-5.44,3.53a4.42,4.42,0,0,0,3.34,4.49q0,.62,0,1.24A45.11,45.11,0,0,1,260.51,167a29.65,29.65,0,0,1-5,8.59c-2.17,2.64-5.57,4.92-7.38,7.76-3.36,5.27-5.49,12.51-6.78,18.59a276.49,276.49,0,0,0-5.48,47.49s6.07,8.71,20.12,10.42h0c14.05,1.71,21.93-3.71,21.93-3.71.57-1.79,1-3.61,1.55-5.41,2.56-9.13,4.7-18.26,6.49-27.57C288,212.29,290.69,199.84,287.92,188.84Z"/><path class="cls-13" d="M287.92,188.84c-.9-3.55-3.7-7-5.38-10.26-3.13-6-3.33-12.63-2.42-19.26.06-.44.85-5,1.58-7.77a4.46,4.46,0,0,0,4.51-3.57c.28-2.27-1.72-4.4-4.44-4.73l-16.91-2.06c-2.72-.33-5.17,1.26-5.44,3.53a4.42,4.42,0,0,0,3.34,4.49q0,.62,0,1.24A45.11,45.11,0,0,1,260.51,167a29.65,29.65,0,0,1-5,8.59c-2.17,2.64-5.57,4.92-7.38,7.76-3.36,5.27-5.49,12.51-6.78,18.59a276.49,276.49,0,0,0-5.48,47.49s6.07,8.71,20.12,10.42h0c14.05,1.71,21.93-3.71,21.93-3.71.57-1.79,1-3.61,1.55-5.41,2.56-9.13,4.7-18.26,6.49-27.57C288,212.29,290.69,199.84,287.92,188.84Z"/><path class="cls-14" d="M62.6,223.4a3.76,3.76,0,0,1,5.18-2.71l2.82-8.79-32.17-6.72-.51,5.12a1.67,1.67,0,0,1,.49,0,1.71,1.71,0,0,1-.7,3.36l-.12,0-.7,7a2.13,2.13,0,0,1,.52,0,2.18,2.18,0,0,1-.89,4.26l-.06,0-1.14,11.44c-.25,1.21,5.29,3.39,12.37,4.87,1.56.33,3.05.59,4.45.79a2.91,2.91,0,0,1,.06-.56,2.85,2.85,0,0,1,5.6,1,7.6,7.6,0,0,0,2.71-.34l.36.08,4.6-14.33A3.77,3.77,0,0,1,62.6,223.4Z"/><path class="cls-15" d="M41.66,238.06c.73-4.48,1.32-9,2-13.47.89-5.84,2.31-11.76,3.13-17.67l-8.35-1.75-.51,5.12a1.67,1.67,0,0,1,.49,0,1.71,1.71,0,0,1-.7,3.36l-.12,0-.7,7a2.13,2.13,0,0,1,.52,0,2.18,2.18,0,0,1-.89,4.26l-.06,0-1.14,11.44c-.17.81,2.29,2.07,6.08,3.26C41.5,239.07,41.58,238.56,41.66,238.06Z"/><ellipse class="cls-16" cx="47.58" cy="220.58" rx="3.47" ry="2.01" transform="translate(-178.07 222.02) rotate(-78.19)"/><ellipse class="cls-16" cx="56.24" cy="232.46" rx="2.58" ry="1.49" transform="translate(-182.8 239.94) rotate(-78.19)"/><ellipse class="cls-16" cx="42.54" cy="234.86" rx="2.58" ry="1.49" transform="translate(-196.06 228.45) rotate(-78.19)"/><ellipse class="cls-16" cx="61.09" cy="216.57" rx="2.58" ry="1.49" transform="translate(-163.41 232.05) rotate(-78.19)"/><path class="cls-16" d="M55.1,205.79c-1.87-.39-3.68-.71-5.37-1-.52.57-1.92.88-3.5.72a4.5,4.5,0,0,1-3.18-1.35c-2.72-.06-4.46.26-4.61,1-.32,1.52,6.63,4.25,15.51,6.11s16.34,2.13,16.66.62S64,207.65,55.1,205.79Z"/><path class="cls-14" d="M68.33,213.07c-.11.83-1.33,1.39-2.72,1.25s-2.43-.93-2.31-1.76,1.33-1.39,2.72-1.25S68.44,212.24,68.33,213.07Z"/><ellipse class="cls-14" cx="56.18" cy="209.1" rx="0.81" ry="2.52" transform="translate(-160 221.31) rotate(-78.19)"/><ellipse class="cls-14" cx="42.15" cy="205.95" rx="0.81" ry="1.26" transform="translate(-168.07 205.06) rotate(-78.19)"/><path class="cls-7" d="M283.33,118.49c-2.83,1.9-7.72,12.62-7.72,12.62s11.77-.46,14.6-2.36a6.18,6.18,0,1,0-6.88-10.26Z"/><path class="cls-7" d="M257.72,104.55c.28,5.6,11.25,21.56,11.25,21.56s9.32-17,9-22.58a10.16,10.16,0,1,0-20.29,1Z"/><path class="cls-17" d="M67.65,100.75s67.9-54.67,147.4-15"/></g><path class="cls-7" d="M286.51,215.46c-.61-5.51-6.42-7.57-10.05-8.51.48-.4,1-.81,1.44-1.24l.31-.28c2.07-1.84,5.52-4.92,5.82-9.37a7.81,7.81,0,0,0-2-6.08,7.47,7.47,0,0,0-5.66-2.3c-3.46,0-8.21,2-14.55,6-7.16,4.56-11.78,9.5-16.34,15.25-5.08-3.61-10.27-6.47-15.07-6.47a9.69,9.69,0,0,0-7,2.74l-.12.12a8.16,8.16,0,0,0-1.79,9c1.5,3.49,5.41,6,9.69,7.78a76.61,76.61,0,0,1-8.6,4.25,82.91,82.91,0,0,1-32.14,6.25h-.41c.62-.78,1.24-1.61,1.87-2.54a5.27,5.27,0,0,0,5.28-1.69,53.37,53.37,0,0,0,5.79-8.68h.3a5.27,5.27,0,0,0,4.42-2.4,71.21,71.21,0,0,0,9.08-23.06c.14-.1.27-.21.4-.32A21,21,0,0,0,223.61,180a23.52,23.52,0,0,0-2.15-11,5.26,5.26,0,0,0,1.35-6.14,40.25,40.25,0,0,0-15.18-16.1,5.26,5.26,0,0,0-1.89-5.57,39,39,0,0,0-19-6.73L182.93,127h.23a5.26,5.26,0,0,0,4.57-7.68c-.83-1.59-3.13-4.26-9.54-6.16-.16-12.32-7-26.19-7.9-27.93a5.26,5.26,0,0,0-5.85-2.75c-23.85,5.38-31.63,19.16-34.13,26.64-1.47.37-3.2.86-5.11,1.51a5.25,5.25,0,0,0-3.58-.84,42.07,42.07,0,0,0-27.11,17.63,89.17,89.17,0,0,0-17.18-1.71c-13.56,0-25,3.25-34.11,9.67a5.26,5.26,0,0,0-2.17,5.06c.2,1.38,2.6,13.67,25.22,35.71-4,6-10.73,18.13-10.41,29.51a5.26,5.26,0,0,0,3.88,4.93c-.17,7.53,1.33,15.41,6.35,21.71-4.39,1.32-8.54,5.18-12.47,9.73-5.8-4.49-11.49-8.18-19.56-10.91-5.22-1.76-9.43-2.66-12.52-2.66-3.41,0-5.93,1.08-7.49,3.22a7.66,7.66,0,0,0-.91,7.08c1.35,4.25,5.44,6.41,7.89,7.7l.37.2c.56.3,1.13.59,1.69.86-3.28,1.78-8.44,5.17-7.72,10.67.44,3.37,3.29,7,10,7A19.64,19.64,0,0,0,28,265a27,27,0,0,0,6.79-2c.61,1.69,2.31,4.42,7,5.08a10,10,0,0,0,1.4.1c4.37,0,7.9-2.82,10.43-5.57a90,90,0,0,0,23.5,7,95.53,95.53,0,0,0,14.92,1.16h0A102.25,102.25,0,0,0,115.66,268a114.12,114.12,0,0,0,20.79-7.17L145,292.36a15.61,15.61,0,0,1,3.1.33,54.44,54.44,0,0,1,11.1,3.74c7.81,2.55,15.69,4.93,23.63,7l10.24,2.29L178.8,248.29a111,111,0,0,0,11.7.65h1a98.9,98.9,0,0,0,37.74-7.63,90,90,0,0,0,21.14-12.43c2.5,1.67,5.62,3.21,9,3.21h0a10.15,10.15,0,0,0,3.81-.72c4.44-1.78,5.44-4.84,5.63-6.63a31.58,31.58,0,0,0,5,.45,20.75,20.75,0,0,0,2.11-.11c2.33-.24,6.6-1.09,9-4.1A7.42,7.42,0,0,0,286.51,215.46Zm-215.85,36a22.19,22.19,0,0,0,6.44-6.8A44.54,44.54,0,0,0,86,254.15,79.35,79.35,0,0,1,70.66,251.42Z"/><path class="cls-7" d="M68.74,228.91a3.48,3.48,0,0,0-2.59-4.41.36.36,0,0,1-.19-.41.37.37,0,0,1,.16-.24.34.34,0,0,1,.31,0l.06,0A3.42,3.42,0,0,0,71,221.74l2.58-8A4.93,4.93,0,0,0,74,212.6c0-.08,0-.16,0-.24s0-.13,0-.19c.38-3.54-4-5.35-5.85-6.14a73,73,0,0,0-12.36-3.59c-1.89-.4-3.77-.73-5.57-1a3.42,3.42,0,0,0-2.59.68,3.8,3.8,0,0,1-1.06,0,3.61,3.61,0,0,1-1-.22,3.42,3.42,0,0,0-2.48-1.15c-2.08,0-6.83-.14-7.91,3.27l0,.07s0,.08,0,.12,0,.14-.07.22,0,.16,0,.24,0,.08,0,.12L34.52,210a3.42,3.42,0,0,0,.27,1.71,3.43,3.43,0,0,0-.6,1.63l-.7,7a3.43,3.43,0,0,0,.54,2.22,3.42,3.42,0,0,0-1,2.07l-1.13,11.32c-.53,3.46,3.53,5.14,5.08,5.78.47.2,1,.39,1.53.58l.1,0A65.53,65.53,0,0,0,47,244.54c1.58.33,3.15.61,4.66.83a3.38,3.38,0,0,0,2.71-.74,3.54,3.54,0,0,0,.47-.48,3.54,3.54,0,0,0,.37.53,3.42,3.42,0,0,0,2.61,1.2,13.7,13.7,0,0,0,2.92-.26,3.42,3.42,0,0,0,3.4-2.37Z"/><path class="cls-8" d="M114.44,262.84a114,114,0,0,0,32.21-13.32l-3-5c-51,30.43-90.12,5.54-90.51,5.29L50,254.68c.43.28,10.83,7,28,9.71A93.91,93.91,0,0,0,114.44,262.84Z"/><path class="cls-8" d="M191.45,243.67a93.88,93.88,0,0,0,35.74-7.22c16-6.76,24.5-15.76,24.86-16.14l-4.23-3.94c-.08.09-8.17,8.61-23.14,14.87-13.78,5.76-36.41,10.72-66,1.69L157,238.46A114.06,114.06,0,0,0,191.45,243.67Z"/><path class="cls-9" d="M250,222c2.7,2.22,7.47,6,11.22,4.51,7.25-2.9-4.22-9.22-7.44-11.19a93.42,93.42,0,0,0,13.86,3.91,27.88,27.88,0,0,0,7.7.65c1.87-.19,6.26-1.13,6-3.79s-5.39-3.83-7.48-4.33a25.65,25.65,0,0,0-18,2.55c4-2.26,7.88-4.61,11.65-7.19a66.19,66.19,0,0,0,6.9-5.28c1.67-1.49,4.23-3.62,4.39-6.08.45-6.92-12.12,1.15-14.1,2.4-7.73,4.93-12.27,10.37-17.77,17.61l-.39.51c-3.61-2.75-14.8-11.78-19.35-7.3-5.71,6,14.29,12,19.07,10.66Z"/><path class="cls-8" d="M159.19,296.43c7.81,2.55,15.69,4.93,23.63,7l4.5,1-20.13-81.16L134,231.67l16.69,61.66A59,59,0,0,1,159.19,296.43Z"/><polygon class="cls-10" points="146.65 249.52 153.14 259.66 157.32 248.33 166.45 257.17 164.66 244.56 146.65 249.52"/><path class="cls-9" d="M70.48,186.84S57.18,216.61,72,231c0,0-3.07-9.44-1.69-14.2.89,3.47,7.63,27.82,22.88,35.76,0,0-7.18-10.38-8.72-15.61,0,0,10.92,20.3,44.39,18.16a39.47,39.47,0,0,1-15.69-6.71c8.36,3.94,41.49,8.57,68.17-14.29.46-.37,1-.86,1.68-1.48l.23-.21h0l.62-.62a40.94,40.94,0,0,0,9.74-18.15s.66,9.53-.35,11.31c0,0,9.53-11.16,9.24-22.08,0,0,1.18,9.54.86,11.56,0,0,9.67-14.89,9.16-31,0,0,1.55,5.34,1.24,6.53,0,0,12.06-10.73-2.66-27.19A9.29,9.29,0,0,1,218,165s-6.14-13.61-23.68-18.24c0,0,6.06-2.07,8.22-1.41a34,34,0,0,0-19.13-5.8l-9-17.66,8.63-.17s-1.49-2.87-10.4-4.47c2-11.92-7-29.65-7-29.65-25,5.63-30,20.76-31,26a54,54,0,0,0-19.65,7.93,22.84,22.84,0,0,1,7.39-6.5A37.07,37.07,0,0,0,97,133.41S67.1,125,46.27,139.7c0,0,1.82,12.32,26.91,35.79,0,0-12.44,16.06-12.05,30.06C61.13,205.54,66.07,191.15,70.48,186.84Zm.29,29.41-.31.08a4.76,4.76,0,0,1,.23-.51S70.72,216,70.77,216.25Z"/><g id="_Mouth-2" data-name="+Mouth"><path class="cls-7" d="M143.58,226a67.89,67.89,0,0,0,22.6-8.33.57.57,0,0,0-.61-1c-.21.13-21.06,13.14-40.43,7.31-10.49-3.16-18.71-11.24-24.42-24a.57.57,0,1,0-1,.46c5.85,13.09,14.31,21.38,25.14,24.64A41.69,41.69,0,0,0,143.58,226Z"/></g><path class="cls-7" d="M169.92,176.41c-7.71,5.88,13.87,6.52,13.87,6.52s2.88-7.3,2.68-13S177.63,170.53,169.92,176.41Z"/><path class="cls-7" d="M86.78,142.46S67.11,136,56.62,143.57c0,0,8.7,14.92,19,19.42C75.59,163,79.53,150.66,86.78,142.46Z"/><path class="cls-7" d="M160.92,96.43c-14,4.92-19.49,18-17.1,18.16,5.54.46,21.21,6.87,21.21,6.87C169.51,113,160.92,96.43,160.92,96.43Z"/><path class="cls-7" d="M160.61,160.43c-5.43-12.48-21.69-26.9-32.06-22.41s-10.92,26.18-5.49,38.67,18.24,19,28.6,14.48S166,172.92,160.61,160.43Z"/><path class="cls-9" d="M157,162.35s.63,27.11-26,15.41C131,177.76,153.11,182.81,157,162.35Z"/><path class="cls-7" d="M185.59,148.09s.57,18.93-16.27,11.05C169.33,159.14,183.27,162.43,185.59,148.09Z"/><path class="cls-7" d="M91.48,206s3.13-18.68,18.11-7.67C109.59,198.36,96.56,192.42,91.48,206Z"/><path class="cls-9" d="M52.42,255.79c-2.09,2.81-5.81,7.63-9.81,7.06-7.73-1.08,1.89-10,4.54-12.65a93.42,93.42,0,0,1-12.52,7.12,27.88,27.88,0,0,1-7.32,2.47c-1.86.26-6.34.41-6.69-2.26s4.31-5,6.23-6a25.65,25.65,0,0,1,18.06-1.83c-4.39-1.24-8.76-2.59-13-4.19a66.19,66.19,0,0,1-8-3.48c-2-1.05-5-2.51-5.72-4.85-2.1-6.61,12-1.79,14.26-1,8.69,2.93,14.4,7.13,21.47,12.84l.5.4c2.84-3.53,11.55-15,17-11.72,7,4.47-11,15.1-16,14.92Z"/><path class="cls-7" d="M244,205.15s-6,35-4.86,43.06c0,0,16.05,13.25,36.72,5l9.69-41.5Z"/><ellipse class="cls-11" cx="264.75" cy="208.43" rx="3.3" ry="21.03" transform="translate(17.54 437.39) rotate(-81.02)"/><path class="cls-12" d="M287.92,188.84c-.9-3.55-3.7-7-5.38-10.26-3.13-6-3.33-12.63-2.42-19.26.06-.44.85-5,1.58-7.77a4.46,4.46,0,0,0,4.51-3.57c.28-2.27-1.72-4.4-4.44-4.73l-16.91-2.06c-2.72-.33-5.17,1.26-5.44,3.53a4.42,4.42,0,0,0,3.34,4.49q0,.62,0,1.24A45.11,45.11,0,0,1,260.51,167a29.65,29.65,0,0,1-5,8.59c-2.17,2.64-5.57,4.92-7.38,7.76-3.36,5.27-5.49,12.51-6.78,18.59a276.49,276.49,0,0,0-5.48,47.49s6.07,8.71,20.12,10.42h0c14.05,1.71,21.93-3.71,21.93-3.71.57-1.79,1-3.61,1.55-5.41,2.56-9.13,4.7-18.26,6.49-27.57C288,212.29,290.69,199.84,287.92,188.84Z"/><path class="cls-13" d="M287.92,188.84c-.9-3.55-3.7-7-5.38-10.26-3.13-6-3.33-12.63-2.42-19.26.06-.44.85-5,1.58-7.77a4.46,4.46,0,0,0,4.51-3.57c.28-2.27-1.72-4.4-4.44-4.73l-16.91-2.06c-2.72-.33-5.17,1.26-5.44,3.53a4.42,4.42,0,0,0,3.34,4.49q0,.62,0,1.24A45.11,45.11,0,0,1,260.51,167a29.65,29.65,0,0,1-5,8.59c-2.17,2.64-5.57,4.92-7.38,7.76-3.36,5.27-5.49,12.51-6.78,18.59a276.49,276.49,0,0,0-5.48,47.49s6.07,8.71,20.12,10.42h0c14.05,1.71,21.93-3.71,21.93-3.71.57-1.79,1-3.61,1.55-5.41,2.56-9.13,4.7-18.26,6.49-27.57C288,212.29,290.69,199.84,287.92,188.84Z"/><path class="cls-14" d="M62.6,223.4a3.76,3.76,0,0,1,5.18-2.71l2.82-8.79-32.17-6.72-.51,5.12a1.67,1.67,0,0,1,.49,0,1.71,1.71,0,0,1-.7,3.36l-.12,0-.7,7a2.13,2.13,0,0,1,.52,0,2.18,2.18,0,0,1-.89,4.26l-.06,0-1.14,11.44c-.25,1.21,5.29,3.39,12.37,4.87,1.56.33,3.05.59,4.45.79a2.91,2.91,0,0,1,.06-.56,2.85,2.85,0,0,1,5.6,1,7.6,7.6,0,0,0,2.71-.34l.36.08,4.6-14.33A3.77,3.77,0,0,1,62.6,223.4Z"/><path class="cls-15" d="M41.66,238.06c.73-4.48,1.32-9,2-13.47.89-5.84,2.31-11.76,3.13-17.67l-8.35-1.75-.51,5.12a1.67,1.67,0,0,1,.49,0,1.71,1.71,0,0,1-.7,3.36l-.12,0-.7,7a2.13,2.13,0,0,1,.52,0,2.18,2.18,0,0,1-.89,4.26l-.06,0-1.14,11.44c-.17.81,2.29,2.07,6.08,3.26C41.5,239.07,41.58,238.56,41.66,238.06Z"/><ellipse class="cls-16" cx="47.58" cy="220.58" rx="3.47" ry="2.01" transform="translate(-178.07 222.02) rotate(-78.19)"/><ellipse class="cls-16" cx="56.24" cy="232.46" rx="2.58" ry="1.49" transform="translate(-182.8 239.94) rotate(-78.19)"/><ellipse class="cls-16" cx="42.54" cy="234.86" rx="2.58" ry="1.49" transform="translate(-196.06 228.45) rotate(-78.19)"/><ellipse class="cls-16" cx="61.09" cy="216.57" rx="2.58" ry="1.49" transform="translate(-163.41 232.05) rotate(-78.19)"/><path class="cls-16" d="M55.1,205.79c-1.87-.39-3.68-.71-5.37-1-.52.57-1.92.88-3.5.72a4.5,4.5,0,0,1-3.18-1.35c-2.72-.06-4.46.26-4.61,1-.32,1.52,6.63,4.25,15.51,6.11s16.34,2.13,16.66.62S64,207.65,55.1,205.79Z"/><path class="cls-14" d="M68.33,213.07c-.11.83-1.33,1.39-2.72,1.25s-2.43-.93-2.31-1.76,1.33-1.39,2.72-1.25S68.44,212.24,68.33,213.07Z"/><ellipse class="cls-14" cx="56.18" cy="209.1" rx="0.81" ry="2.52" transform="translate(-160 221.31) rotate(-78.19)"/><ellipse class="cls-14" cx="42.15" cy="205.95" rx="0.81" ry="1.26" transform="translate(-168.07 205.06) rotate(-78.19)"/><path class="cls-7" d="M283.33,118.49c-2.83,1.9-7.72,12.62-7.72,12.62s11.77-.46,14.6-2.36a6.18,6.18,0,1,0-6.88-10.26Z"/><path class="cls-7" d="M257.72,104.55c.28,5.6,11.25,21.56,11.25,21.56s9.32-17,9-22.58a10.16,10.16,0,1,0-20.29,1Z"/><path class="cls-7" d="M311.24,24.9a6.56,6.56,0,0,0-5.25-.62,7,7,0,0,0-3.43,2.28,6.61,6.61,0,0,0-1.35,2.88,30.81,30.81,0,0,1-8,1.14,8.7,8.7,0,0,0,.22-6.62c-.8-1.91-2.77-4.29-7.61-4.79-4.65-.47-7.27,1.21-8.7,2.82a14.82,14.82,0,0,0-4.2-2.6,16.93,16.93,0,0,0-13.26.4A18.43,18.43,0,0,0,253,24.91a16.51,16.51,0,0,0-3.56,13.73,38.52,38.52,0,0,0-8.92,4.23A4.22,4.22,0,0,0,238.91,45a27.84,27.84,0,0,0-4.86,3.9,16.32,16.32,0,0,0-6.41-1.19c-6,.16-9.33,3.36-11.6,6.13-.46.56-.89,1.12-1.31,1.69s-.69.91-1,1.34a5.34,5.34,0,0,1-2,1.77,1.5,1.5,0,0,1,.14-1.22.65.65,0,0,1,.22-.17A5.81,5.81,0,1,0,206.63,47a12.28,12.28,0,0,0-3.86,3.12,13.16,13.16,0,0,0-1.86,13.06,11.05,11.05,0,0,0,13.82,6.75,15.84,15.84,0,0,0,8-5.64c.46-.56.89-1.12,1.3-1.67s.7-.93,1.05-1.36c1.28-1.57,1.9-1.83,2.89-1.86a4.5,4.5,0,0,1,.88.09,19.22,19.22,0,0,0-2.16,6.47,4.24,4.24,0,0,0,.51,2.64,25.72,25.72,0,0,0-1.47,6.81,4.25,4.25,0,0,0,.16,1.39,51.11,51.11,0,0,0-1.51,5.51,5,5,0,0,0-.06.51l-.18.7a4.49,4.49,0,0,0-.12,2.38c0,.06,0,.12,0,.18a4.24,4.24,0,0,0,.78,1.55c1.78,2.86,3.78,4.33,5.86,4.33A5.42,5.42,0,0,0,235.3,90a4.78,4.78,0,0,0,1-3.83c0-.14-.07-.26-.11-.39,1.52,1.93,3.14,2.89,4.85,2.89a5.42,5.42,0,0,0,4.64-1.86,4.77,4.77,0,0,0,1-3.83c0-.16-.06-.32-.1-.47a4.23,4.23,0,0,0,.55-1.8c1.19-.94,2.38-1.93,3.48-2.88a4.23,4.23,0,0,0,2.13-.62,46.8,46.8,0,0,0,5.72-4.39,4.24,4.24,0,0,0,2.29-.74,33.43,33.43,0,0,0,6.73-6.46c.65-.8,1.18-1.49,1.54-2a4.16,4.16,0,0,0,.36-.39l0-.06a93.17,93.17,0,0,1,27.55-2.5c3.17,3,5.22,2.84,5.84,2.79a5.56,5.56,0,0,0,4.2-1.9,4.6,4.6,0,0,0,.9-4.08c0-.1-.07-.18-.1-.27a4.54,4.54,0,0,0,1.63-.66,6.84,6.84,0,0,0,1.82-1.52,4.65,4.65,0,0,0,.56-5.22,4.75,4.75,0,0,0-1.59-1.73,4.2,4.2,0,0,0-5.59-3c-.14.05-.28.14-.42.2q-.39-.52-.78-1c.72-.75,1.42-1.52,2.1-2.34a41.45,41.45,0,0,0,3.83-5.57,7,7,0,0,0,3.35-2.25,6.45,6.45,0,0,0,1.39-5.35A6.05,6.05,0,0,0,311.24,24.9Z"/><path class="cls-18" d="M318.77,55.63s-5.43-.93-5.22,6.38C313.54,62,314.83,56.61,318.77,55.63Z"/><path class="cls-19" d="M299,54.29l.18.12c1.14.65,2.73,0,3.55-1.42s.56-3.12-.59-3.77a1.91,1.91,0,0,0-.3-.14l3.58-6.56,10.42-5.68a1.27,1.27,0,0,0,.49.53,1.75,1.75,0,0,0,2.26-.9,2.18,2.18,0,0,0,.29-1.29L332,28,286,78.2Z"/><path class="cls-20" d="M327.52,64a2.17,2.17,0,0,0-.21,1.77L307.44,87.45a2,2,0,0,0-.82-.92c-1.14-.65-2.73,0-3.55,1.42a3.74,3.74,0,0,0-.23.48L292.23,82a1.85,1.85,0,0,0,.11-.16,1.52,1.52,0,1,0-2.62-1.5l0,.11L286,78.2,332,28l12,7.27a2.44,2.44,0,0,0-.32.44,1.63,1.63,0,1,0,2.76,1.57,2.46,2.46,0,0,0,.19-.42l4.64,2.82L329.83,63.07A1.84,1.84,0,0,0,327.52,64Z"/><circle class="cls-21" cx="306.67" cy="70.81" r="3.45" transform="translate(93.15 302.05) rotate(-60.28)"/><path class="cls-22" d="M305,68.89a3.44,3.44,0,1,1,1.29,4.7A3.43,3.43,0,0,1,305,68.89Z"/><circle class="cls-21" cx="342.53" cy="43.15" r="1.82" transform="translate(135.26 319.24) rotate(-60.28)"/><path class="cls-22" d="M341.65,42.14a1.82,1.82,0,1,1,.68,2.48A1.81,1.81,0,0,1,341.65,42.14Z"/><circle class="cls-21" cx="322.83" cy="48.07" r="3.93" transform="matrix(0.06, -1, 1, 0.06, 254.28, 367.18)"/><path class="cls-22" d="M321.7,50.72a3.91,3.91,0,0,1-2.46-1.08,3.93,3.93,0,0,1,6.31-4.42,3.93,3.93,0,0,1-3.85,5.5Z"/><ellipse class="cls-22" cx="311.4" cy="44.52" rx="2.63" ry="1.24" transform="translate(74.14 251.06) rotate(-49.18)"/><path class="cls-23" d="M310,45.7a1,1,0,0,1-.2-1,5.13,5.13,0,0,1,.68-1c.95-1.1,2.14-1.63,2.66-1.18a1,1,0,0,1,.2,1,5.13,5.13,0,0,1-.68,1C311.68,45.62,310.49,46.15,310,45.7Z"/><ellipse class="cls-22" cx="305.74" cy="53.76" rx="1.49" ry="0.69" transform="translate(65.19 249.98) rotate(-49.18)"/><path class="cls-23" d="M304.93,54.43a.56.56,0,0,1-.11-.55,3,3,0,0,1,.39-.57c.54-.62,1.2-.92,1.49-.67a.56.56,0,0,1,.11.55,3,3,0,0,1-.39.57C305.89,54.37,305.22,54.67,304.93,54.43Z"/><ellipse class="cls-22" cx="323.31" cy="34.72" rx="1.49" ry="0.69" transform="translate(85.69 256.68) rotate(-49.18)"/><path class="cls-23" d="M322.51,35.39a.56.56,0,0,1-.11-.55,3,3,0,0,1,.39-.57c.54-.62,1.2-.92,1.49-.67a.56.56,0,0,1,.11.55,3,3,0,0,1-.39.57C323.46,35.33,322.79,35.63,322.51,35.39Z"/><ellipse class="cls-22" cx="297.49" cy="62.5" rx="2.7" ry="1.25" transform="translate(55.72 246.76) rotate(-49.18)"/><path class="cls-23" d="M296,63.72a1,1,0,0,1-.19-1,5.36,5.36,0,0,1,.71-1c1-1.13,2.19-1.68,2.71-1.23a1,1,0,0,1,.19,1,5.36,5.36,0,0,1-.71,1C297.77,63.62,296.55,64.17,296,63.72Z"/><circle class="cls-21" cx="319.13" cy="63.09" r="2.23" transform="translate(235.82 377.55) rotate(-86.34)"/><path class="cls-22" d="M318.49,64.6a2.22,2.22,0,0,1-1.4-.61,2.23,2.23,0,0,1,3.58-2.51,2.23,2.23,0,0,1-2.18,3.12Z"/><circle class="cls-21" cx="293.84" cy="76.08" r="2.23" transform="translate(199.17 364.47) rotate(-86.34)"/><path class="cls-22" d="M293.19,77.59a2.23,2.23,0,1,1,2.37-2.08A2.22,2.22,0,0,1,293.19,77.59Z"/><circle class="cls-21" cx="306.74" cy="82.73" r="1.6" transform="matrix(0.06, -1, 1, 0.06, 204.62, 383.57)"/><path class="cls-22" d="M306.28,83.81a1.6,1.6,0,1,1,1.7-1.5A1.59,1.59,0,0,1,306.28,83.81Z"/><path class="cls-9" d="M228.55,83.19s-.05-.13,0-.28c.39-2.35,3.59-11.59,3.59-11.59a30.52,30.52,0,0,0-2.19,4.24c.32-6,5.1-13.87,5.1-13.87-1.05.47-4.17,4.75-4.17,4.75C232,57.89,242.24,51,242.24,51c-1.84.13-6.68,2.62-6.68,2.62,4.84-6.2,12.5-8.18,12.5-8.18-1.6-.18-5.15,1-5.15,1a40.41,40.41,0,0,1,12.29-5,43,43,0,0,1,21.63-7.74s25.67,4.46,31-3.82c0,0-6.35,18-24.13,20.08,3.17-.21,11.23,0,15.56,6.74,0,0-46-5.84-71.15,28.25C228.12,84.93,228.26,84.29,228.55,83.19Z"/><path class="cls-9" d="M295.1,43.07a16.12,16.12,0,0,1,8,9.42s-9.75-5.42-18.8-1.46l-1.53-2.68Z"/><path class="cls-9" d="M285.55,34.81l-2.49-.34c.82.08,1.69.15,2.6.21Z"/><path class="cls-9" d="M286.42,33.78c-2.63-.16-5-.42-6.64-.64-.79-2.72-2.41-10.57,5.66-9.75C293.3,24.2,288.55,31.13,286.42,33.78Z"/><path class="cls-9" d="M309.9,29.72a2,2,0,0,0-2.7-1.37,2.51,2.51,0,0,0-1.87,2.74,2,2,0,0,0,2.7,1.37A2.51,2.51,0,0,0,309.9,29.72Z"/><path class="cls-9" d="M240.71,72c3.14-3.88,9.5-8.57,22-13.4l11.18-3.34s-2.21,1.45-5.61,3.78a80.89,80.89,0,0,0-13.72,4.7A69,69,0,0,0,240.71,72Z"/><path class="cls-9" d="M254.89,64.62a78.12,78.12,0,0,1,11.18-4l-.18.12a35.31,35.31,0,0,1-7.56,7.9s1.82-2.61,2.24-3.51c0,0-6.31,6.24-10.05,8.52a34,34,0,0,0,2.37-3.38L253,70l-.23.17c-.09.09-8.5,8.08-12.9,10.44v0l-.18.16a6.14,6.14,0,0,1,3.2-.3c-.87,1.44-2.34.9-3.69.74l-.14.13a8.39,8.39,0,0,1,2,.74c.94.57,2.58,2.49.08,2.4-.83,0-2-1.61-2.63-2.7l-.06.05s-1.76-2.85.51-7.22A67,67,0,0,1,254.89,64.62Z"/><path class="cls-9" d="M228.28,84.35c1.48,0,3.25.93,4.23-.71a7.43,7.43,0,0,0-4.22.66Z"/><path class="cls-9" d="M230.72,85.25a7.43,7.43,0,0,0-2.47-.85c0,.14-.1.28-.17.41.61,1.08,1.85,2.83,2.71,2.84C233.3,87.74,231.66,85.82,230.72,85.25Z"/><path class="cls-9" d="M254.1,39.47c2.3,5.86,9.33,8.29,15.69,5.43s9.65-9.94,7.34-15.8-9.33-8.29-15.69-5.43S251.79,33.6,254.1,39.47ZM263,26.76c9.76-4,10.79,7.33,10.79,7.33-5.85-.18-14.89,5.26-14.89,5.26S253.26,30.72,263,26.76Z"/><path class="cls-7" d="M281.62,38.68a3.7,3.7,0,0,1-1.84,4.7,3.29,3.29,0,0,1-4.43-1.88,3.7,3.7,0,0,1,1.84-4.7A3.29,3.29,0,0,1,281.62,38.68Z"/><path class="cls-9" d="M277.58,39.83a1.31,1.31,0,0,1-1.31,1c-.51-.09-.75-.67-.54-1.29a1.31,1.31,0,0,1,1.31-1C277.55,38.63,277.79,39.21,277.58,39.83Z"/><path class="cls-9" d="M301.91,57a9.3,9.3,0,0,0-2.75-.57,3.6,3.6,0,0,1-.08.4c.89,1,2.57,2.5,3.47,2.43C305.15,59.14,303,57.49,301.91,57Z"/><path class="cls-9" d="M238.49,63.82a1.58,1.58,0,0,0,1.17-1.43,8.72,8.72,0,0,0-2.06-5.83,12.39,12.39,0,0,0-9.84-4.6c-5.09.13-7.51,3.32-9.64,6.14-1.56,2-3,4-5.43,4.68a3.8,3.8,0,0,1-4.91-2.39A5.42,5.42,0,0,1,210,53.5a1.57,1.57,0,0,0-1.46-2.79c-4.34,2.26-5.17,7.28-3.74,10.85a6.85,6.85,0,0,0,8.71,4.24c3.41-1,5.35-3.54,7.06-5.8,2-2.58,3.64-4.8,7.21-4.89a9.19,9.19,0,0,1,7.3,3.41,5.62,5.62,0,0,1,1.39,3.7,1.57,1.57,0,0,0,2,1.61Z"/><path class="cls-9" d="M299,56.65c1.51-.29,3.63.21,4.1-1.49A7.82,7.82,0,0,0,299,56.6S299,56.63,299,56.65Z"/></g></g></svg>