<svg id="Layer_1" xmlns="http://www.w3.org/2000/svg" viewBox="0 0 230 275"><style>.st0{display:none;fill:#E53A2E;} .st1{opacity:0.7;fill:url(#SVGID_1_);} .st2{fill:#6D6E71;} .st3{fill:#E43B2C;} .st4{fill:#FFFFFF;} .st5{opacity:0.7;fill:url(#SVGID_2_);} .st6{fill:#D9C526;} .st7{opacity:0.7;fill:url(#SVGID_3_);} .st8{fill:#CCCCCB;} .st9{fill:#858686;} .st10{opacity:0.7;fill:url(#SVGID_4_);} .st11{fill:#F0F9FB;} .st12{fill:#0AB1D1;} .st13{fill:#A7DEEF;} .st14{fill:#209AB8;}</style><path class="st0" d="M-88.7-59.5h1514v398h-1514z"/><radialGradient id="SVGID_1_" cx="105.836" cy="782.736" r="93.758" gradientTransform="matrix(1.0866 0 0 .1173 7.285 171.636)" gradientUnits="userSpaceOnUse"><stop offset="0" stop-color="#414042"/><stop offset="1" stop-opacity="0"/></radialGradient><ellipse class="st1" cx="122.3" cy="263.5" rx="101.9" ry="11"/><path class="st2" d="M115 180.1l8 83.4h38.4l-15.5-95.2z"/><path class="st3" d="M207.1 163l-154 28.7c-14.5 2.7-28.4-6.9-31.1-21.3L1.6 60.7c-2.7-14.5 6.9-28.4 21.3-31.1L176.9 1c14.5-2.7 28.4 6.9 31.1 21.3l20.4 109.6c2.7 14.5-6.8 28.4-21.3 31.1z"/><path class="st4" d="M68.9 124.7c-2.9.5-5.4.5-7.8 0-2.3-.6-4.4-1.5-6.1-3-1.7-1.4-3.2-3.2-4.3-5.3-1.1-2.1-2-4.5-2.4-7-.3-1.8-.5-3.5-.4-5.3.1-1.7.4-3.4 1.1-5.2.6-1.5 1.2-2.8 2-4 .8-1.2 1.7-2.2 2.8-3.1 1.1-.9 2.4-1.6 3.8-2.2 1.4-.6 3.1-1.1 4.9-1.4 2.6-.5 5-.5 7.3-.1 2.2.4 4.2 1.2 6 2.5 1.8 1.3 3.2 2.9 4.4 5 1.2 2.1 2.1 4.6 2.6 7.5.4 2.4.6 4.7.3 7.1-.2 2.3-.9 4.5-2 6.5s-2.6 3.7-4.6 5.1c-1.9 1.3-4.5 2.3-7.6 2.9zM68 118c3.2-.6 5.4-2.1 6.6-4.5 1.2-2.4 1.4-5.3.7-8.9-.3-1.5-.7-2.9-1.4-4.1-.6-1.3-1.4-2.4-2.4-3.3-1-.9-2.1-1.5-3.5-1.9-1.3-.4-2.8-.4-4.4-.1-1.6.3-3 .9-4.1 1.7-1.1.8-2 1.8-2.5 3.1l-.6 1.5c-.2.5-.3 1-.4 1.7-.1.6-.1 1.3 0 2.2 0 .8.2 1.8.4 2.9.7 3.7 2.1 6.4 4.1 8.1 2 1.6 4.5 2.2 7.5 1.6zM87.9 100.2l-2.3-12.1c-.1-.7-.1-1.3 0-1.8.1-.6.6-1.1 1.3-1.7.8-.5 1.9-1.1 3.5-1.5 1.6-.5 3.8-1 6.6-1.5 3-.6 5.5-.7 7.7-.4 2.2.3 4.1.8 5.6 1.7 1.5.9 2.7 1.9 3.6 3.3.9 1.3 1.5 2.8 1.8 4.4.7 3.8 0 6.8-2 9.1-2.1 2.3-5.3 3.9-9.7 4.7-.9.2-1.6.3-2.2.4-.6.1-1.1.1-1.5.2-.4 0-.8.1-1.1.1-.3 0-.6.1-1 .1-.4.1-.6.2-.7.4-.1.2-.1.4-.1.7 0 .1.1.6.2 1.5.1.8.3 1.8.5 2.8.2 1 .4 2 .5 3 .2 1 .3 1.7.4 2.1.1.8 0 1.5-.5 2-.5.6-1.5 1-2.9 1.2-1.6.3-2.7.3-3.4-.1s-1-.9-1.1-1.7l-3.2-16.9zm7.9-1.7c.1.7.6 1.2 1.5 1.4.8.2 2.3.1 4.2-.2 2.7-.5 4.6-1.4 5.6-2.6 1.1-1.2 1.5-2.7 1.1-4.4-.4-2.2-1.5-3.6-3.2-4.2-1.7-.6-4-.7-6.8-.2-.9.2-1.6.4-2.2.6-.5.2-1 .4-1.2.7-.3.3-.4.6-.5.9 0 .3 0 .7.1 1.2l1.4 6.8zM130.3 97.8c-.5.1-.8.3-.9.6-.1.3-.1.6-.1.9.1.3.1.8.3 1.6.1.7.3 1.5.4 2.4.2.9.5 1.4 1 1.6.5.2 1.2.2 2 0 .3-.1.8-.1 1.5-.3.7-.1 1.5-.3 2.5-.5.9-.2 1.9-.4 2.9-.6 1-.2 2-.4 2.9-.6.9-.2 1.8-.3 2.5-.5.7-.1 1.2-.2 1.5-.3.9-.2 1.5 0 2 .4.4.4.8 1.3 1 2.7.2 1.1.2 1.9 0 2.4s-.7.9-1.5 1c-.5.1-1.6.3-3.3.6-1.7.3-3.7.7-5.9 1.1-1.1.2-2.2.4-3.5.7-1.3.2-2.5.5-3.7.7-1.2.2-2.2.4-3.1.6-.9.2-1.5.3-1.9.4-.6.1-1 .1-1.3.1-.3 0-.6-.2-.8-.3-.2-.2-.4-.4-.5-.7-.1-.3-.2-.6-.2-.9-.1-.3-.2-1.1-.4-2.4-.2-1.3-.5-2.7-.8-4.3-.3-1.6-.6-3.3-.9-5-.3-1.7-.6-3.2-.8-4.4-.2-1.2-.5-2.6-.8-4.1-.3-1.5-.6-2.9-.8-4.3-.3-1.4-.5-2.6-.7-3.6-.2-1.1-.4-1.8-.4-2.2-.1-.8-.1-1.4.2-1.9.2-.5.9-.8 2.1-1 2.3-.4 4.6-.9 6.8-1.3s4.3-.8 6.1-1.1c1.8-.3 3.4-.6 4.7-.8 1.3-.2 2.1-.4 2.5-.4.8-.1 1.4 0 1.8.3.5.4.8 1.2 1.1 2.5.2 1.1.2 2-.2 2.6-.3.6-1 1-2 1.2-.1 0-.5.1-1.1.2-.6.1-1.3.2-2.2.4-.9.2-1.8.3-2.8.5-1 .2-2 .3-2.9.5-.9.2-1.8.3-2.5.5-.8.1-1.3.2-1.6.3-1.1.2-1.6.9-1.4 2l1.1 5.7c.1.6.3 1 .6 1.2.3.2.8.3 1.4.2l13.3-2.5c.8-.1 1.4-.1 1.8.3.4.3.7 1 .9 2.1.2.9.2 1.6 0 2.1s-.7.8-1.5 1l-14.4 2.6zM158 106.9c-.8.1-1.5 0-2-.3-.6-.4-.9-.9-1.1-1.6 0-.2-.1-.6-.2-1.3-.1-.7-.3-1.5-.4-2.4-.2-.9-.3-2-.6-3.2-.2-1.2-.4-2.3-.6-3.4l-.6-3.3c-.2-1-.4-1.9-.5-2.6-.2-1.1-.4-2.3-.7-3.6-.3-1.3-.5-2.5-.7-3.7s-.4-2.1-.6-3c-.2-.8-.3-1.3-.3-1.5-.3-1.4-.2-2.6.3-3.5.5-.9 1.5-1.5 3.3-1.8.8-.2 1.5-.2 2.1-.1.6.1 1.1.3 1.6.5.5.3.9.6 1.3 1s.8.8 1.2 1.3c.3.3.8.9 1.6 1.8s1.7 1.9 2.8 3.1c1.1 1.2 2.2 2.4 3.4 3.8 1.2 1.3 2.4 2.7 3.5 3.9 1 1.2 1.8 2.1 2.5 2.8.6.7 1.1 1.3 1.5 1.7.3.4.6.7.8.8.2.2.3.2.4.2.2 0 .3-.3.2-.7-.1-.4-.3-1.6-.8-3.5-.4-1.9-.9-4.2-1.4-7-.4-2.1-.7-3.6-.9-4.7-.2-1.1-.4-2-.5-2.6-.1-.6-.2-1.1-.3-1.5-.1-.4-.2-.9-.3-1.6-.1-.8-.1-1.4.3-1.9.3-.5 1-.9 1.9-1l1.4-.3c.8-.2 1.5-.1 2 .2.5.3.9.9 1.1 1.8l5.2 27.4c.3 1.5.2 2.7-.4 3.7-.5.9-1.7 1.6-3.6 1.9-1.5.3-2.7.1-3.7-.5s-2-1.5-2.9-2.6c-.4-.4-1-1.1-1.8-2.1-.9-1-1.8-2.1-2.9-3.3-1-1.2-2.1-2.4-3.2-3.6-1.1-1.2-2-2.3-2.7-3.2-1.1-1.3-1.9-2.3-2.5-3.1-.6-.8-1-1.4-1.4-1.8-.3-.4-.5-.7-.7-.8-.1-.1-.3-.2-.4-.2-.2 0-.2.2-.2.6.1.4.3 1.4.7 3.2.4 1.7.8 4 1.3 6.6.1.3.2.9.4 2 .2 1 .4 2.2.7 3.4.3 1.2.5 2.4.7 3.6.2 1.2.4 2 .5 2.6.2.9 0 1.5-.5 2s-1.2.8-2.1 1l-1.2.4z"/></svg>