<svg id="Layer_1" data-name="Layer 1" xmlns="http://www.w3.org/2000/svg" viewBox="0 0 163 150"><defs><style>.cls-1{fill:#fff;}.cls-2{fill:#e63f31;}</style></defs><polygon class="cls-1" points="87.589 130.729 122.349 117.521 131.78 75.79 134.563 62.498 149.276 38.032 141.939 31.558 118.672 35.094 92.869 45.484 62.522 19.297 47.152 6.057 46.537 40.68 29.742 66.709 33.113 94.267 56.505 123.853 87.589 130.729"/><path class="cls-2" d="M149.06847,93.19191c-1.54684-12.10614-14.37865-24.26457-14.37865-24.26457,18.38729-23.59212,18.29257-34.45285,18.29257-34.45285-19.85792-9.88746-44.35713,1.41833-44.35713,1.41833A32.14762,32.14762,0,0,0,84.423,23.47584C89.61659,25.1211,93.7383,30.315,93.7383,30.315a104.54947,104.54947,0,0,0-19.90713-6.07336c-1.34382-3.99815-7.4451-17.00829-30.25-18.53384,0,0-5.35462,16.48671-2.06734,26.48941-7.43831,2.58414-8.32812,5.25343-8.32812,5.25343L40.61308,36.434,35.2654,52.85761a29.54526,29.54526,0,0,0-15.64149,7.57222c1.76189-.859,7.2424.10459,7.2424.10459-14.4291,6.34949-17.874,18.90424-17.874,18.90424A8.0595,8.0595,0,0,1,14.65743,76.614c-10.4203,16.164,1.37036,23.77755,1.37036,23.77755-.42887-.97975.18573-5.789.18573-5.789,1.72117,13.92449,12.01574,25.44271,12.01574,25.44271-.54657-1.6971-.81453-10.07551-.81453-10.07551,1.22164,9.44409,10.89375,17.76836,10.89375,17.76836-1.09854-1.39427-1.81527-9.6937-1.81527-9.6937a35.67368,35.67368,0,0,0,10.799,14.32034c.23078.17586.41914.29557.63388.44876l-.0344.00617c25.5544,18.91843,63.76767,2.74334,63.76767,2.74334a34.27245,34.27245,0,0,1-14.04867,9.46539c29.01107-2.66436,35.65784-21.62475,35.65784-21.62475-.61861,4.71426-5.38424,14.62178-5.38424,14.62178,12.019-8.90015,14.5289-30.75723,14.82957-33.87713,1.818,3.91346.46064,12.44275.46064,12.44275,10.77373-14.40009-4.64175-38.24629-4.64175-38.24629C142.89994,81.46419,149.06847,93.19191,149.06847,93.19191Zm-4.4537-53.9865s-5.46569,14.02846-13.66933,19.281c0,0-5.0376-10.08169-12.35481-16.16831C118.59063,42.31806,134.5985,34.07231,144.61477,39.20541Zm-62.471,4.91774c9.49963,2.468,12.88457,21.08,9.90119,32.56554C89.06091,88.17359,78.615,93.2945,69.11506,90.82622,59.61635,88.35809,54.66005,79.2358,57.643,67.7509,60.62727,56.26615,72.64424,41.65548,82.14372,44.12315ZM48.786,12.66308c12.64761,2.3552,19.139,12.842,17.11458,13.3358-4.69281,1.14467-17.2798,8.77967-17.2798,8.77967C43.62715,28.06622,48.786,12.66308,48.786,12.66308Zm93.70373,91.07578-.25963-.02283c.01064-.24436.014-.3852.014-.3852A4.34052,4.34052,0,0,1,142.48974,103.73886Z"/><path class="cls-1" d="M51.79708,82.76542c7.40349,4.02193-11.02443,7.48134-11.02443,7.48134s-3.455-5.8975-4.04837-10.8506C36.13187,74.44091,44.395,78.74244,51.79708,82.76542Z"/><path class="cls-1" d="M102.723,91.016c13.64763-14.67668,15.58688,7.38208,15.58688,7.38208h0C112.52365,81.03214,102.723,91.016,102.723,91.016Z"/><path class="cls-1" d="M82.61926,118.33c-9.63069,1.798-20.83135-.35138-33.41613-6.42942a.73308.73308,0,0,1,.63769-1.32022c15.45611,7.46471,28.70819,8.878,39.38715,4.2001,13.63929-5.97439,18.90213-20.26179,20.19014-24.49826a.7331.7331,0,0,1,1.40284.42637,47.35025,47.35025,0,0,1-6.70112,13.56331,34.91318,34.91318,0,0,1-14.30357,11.85153A32.95706,32.95706,0,0,1,82.61926,118.33Z"/><ellipse class="cls-2" cx="79.05937" cy="81.15608" rx="6.15052" ry="4.08415" transform="translate(-25.97075 123.64569) rotate(-67.77542)"/><ellipse class="cls-1" cx="49.12173" cy="68.04258" rx="6.15052" ry="3.85401" transform="translate(-32.44556 87.77869) rotate(-67.77542)"/></svg>