<svg xmlns="http://www.w3.org/2000/svg" viewBox="0 0 232.48 133.17"><defs><style>.cls-1{isolation:isolate;}.cls-2{fill:#fff;}.cls-3{fill:#e93e32;}.cls-4{fill:#e83d32;}.cls-5{fill:#231f20;opacity:0.3;mix-blend-mode:multiply;}.cls-6{fill:#27aae1;}</style></defs><title>Artboard 46</title><g class="cls-1"><g id="Layer_1" data-name="Layer 1"><path class="cls-2" d="M78.3,98.16a8.63,8.63,0,0,1-2-.26c-4.07-1-5.69-5.82-6.66-8.7l-.11-.34c-1.11-3.29-2.25-7.15-1.64-11.37,0-.33.11-.69.18-1a22.37,22.37,0,0,1,6-10.49c2.48-2.63,5-4,7.6-4a7.37,7.37,0,0,1,.91.06,6.92,6.92,0,0,1,5.63,4.07A9.2,9.2,0,0,1,87.66,74c3.39.34,8.57,1.42,10.58,4.86a6.16,6.16,0,0,1-.17,6.38,8.89,8.89,0,0,1-8.26,4.78,18.54,18.54,0,0,1-6.41-1.34c.54,2.48.65,5.06-.46,6.92a5.14,5.14,0,0,1-4.63,2.51Z"/><path class="cls-2" d="M2.84,49.12C3,58.77,6.53,70.67,15.62,77.78H63.39a3,3,0,0,0-1.3-2.48,47.7,47.7,0,0,0-15.42-6.6C35.72,66,31,58.69,32.51,47.11c.07-.49.14-1,.23-1.42,0-.09.08-.4.08-.42s0-.21.06-.31l.1-.51c.15-.73.29-1.3.43-1.77l0-.13,0-.17.13-.49.06-.19c.07-.26.15-.52.22-.75s.1-.27.13-.38l0-.14c0-.08.05-.16.08-.23a2.94,2.94,0,0,0,.15-.41l.06-.18h0l0,0,.1-.25.11-.25c2-4.81,1.91-9.28-.3-12.6-2-2.95-5.33-4.57-9.49-4.57-.51,0-1,0-1.58.07C10.86,23.13,3.66,34.58,2.93,45.28c-.07,1-.1,2-.1,3.27a4.87,4.87,0,0,0,0,.51Z"/><path class="cls-2" d="M179.18,43.47a22.84,22.84,0,0,0-8.56-8.21l-.24-5.14.26.11a3,3,0,0,0,4.18-2.92c-.06-1-.64-3-3.64-5.59,2.92-6.64,2.61-15.8,2.56-16.94a3,3,0,0,0-2.4-2.8c-.82-.17-1.63-.3-2.43-.42l-.21,0a35.69,35.69,0,0,0-4.9-.37c-9.71,0-15,4.36-17.52,7.3-.8,0-1.63-.07-2.47-.08a3,3,0,0,0-2-2.08,21,21,0,0,0-5.72-.71,25.11,25.11,0,0,0-13,3.65C119.21,6.47,109.79.59,99,.59a27.91,27.91,0,0,0-5.35.51,3,3,0,0,0-2.31,2.12c-.22.79-1.91,8,4.88,25.31C92.7,30.79,86.1,35.65,83.5,41.86a3,3,0,0,0,.92,3.52c-2.18,4.54-3.34,9.84-1.3,15a3,3,0,0,0,1.67,1.67c.24,5.3,1.41,11.37,4.88,15.8a3,3,0,0,0,4.25.48c3.15,3.77,8,7.64,15.54,10.47a3,3,0,0,0,3.74-1.47,3,3,0,0,0,.17-.42c5.75,2.66,13,5,20.75,5h0a33.39,33.39,0,0,0,12.08-2.19l.09,0,.42-.16a23.6,23.6,0,0,0,3.66-1.87,3,3,0,0,0,3.19.4,31.36,31.36,0,0,0,5.23-3.29,3,3,0,0,0,3.07-.11,41.89,41.89,0,0,0,10.44-10.2l.32-.08a12.78,12.78,0,0,0,8.25-12.37,3,3,0,0,0,2.2-2.89,23.65,23.65,0,0,0-4.25-12.34A3,3,0,0,0,179.18,43.47Z"/><path class="cls-2" d="M230,75.52c-1.22-4-6.13-5.36-9.06-6.16l-.34-.09a30.13,30.13,0,0,0-8-1.33,17.22,17.22,0,0,0-3.37.32c-.35.07-.7.15-1.08.25A22.37,22.37,0,0,0,198,75.05c-2.79,2.94-3.94,5.87-3.42,8.71a7,7,0,0,0,7.25,5.9,9.63,9.63,0,0,0,5-1.43,19,19,0,0,0,3,8.15,6.28,6.28,0,0,0,5.1,2.77h0A6.78,6.78,0,0,0,218.6,98a8.69,8.69,0,0,0,4.21-5.9c.58-2.94-.27-6.15-1.53-9a16.57,16.57,0,0,0,2.71.25c2.48,0,4.3-.76,5.42-2.27C230.16,80.09,230.88,78.3,230,75.52Z"/><path class="cls-3" d="M21.1,77.78h39.3a44.41,44.41,0,0,0-14.46-6.17c-16.11-4-17.55-16.33-16.4-24.89.08-.57.17-1.11.26-1.63,0-.09,0-.2.06-.3s.09-.45.13-.68a1.37,1.37,0,0,1,.05-.26c.15-.71.3-1.39.48-2,0-.08,0-.16.05-.22s.1-.37.15-.54a1.29,1.29,0,0,1,.06-.19c.1-.34.2-.68.29-1l0-.07c0-.14.08-.26.12-.39a.82.82,0,0,0,.06-.19c0-.1.08-.21.12-.3a1.78,1.78,0,0,1,.06-.18c0-.14.09-.26.13-.36a.69.69,0,0,0,.06-.16l.06-.13.05-.11,0-.05,0-.06c3.3-7.85-.45-13.68-8.32-13-10.41,1-16.9,10.71-17.57,20.52-.07,1-.09,2-.09,3.09a2.27,2.27,0,0,0,0,.24h0C6,60.19,10.75,72.29,21.1,77.78Z"/><polygon class="cls-2" points="119.61 78.53 99.32 63.68 100.66 34.78 101.23 25.61 96.03 7.02 101.98 4.12 116.51 10.6 131.47 22.01 155.96 10.38 168.35 4.51 162.54 27.19 168.82 47.17 161.67 64.54 141.11 79.63 119.61 78.53"/><path class="cls-4" d="M180.06,59.2a21.64,21.64,0,0,0-8.26-15.53s3.75.36,4.74,1.23a20,20,0,0,0-8.84-7.74l-.54-11.67,4.66,2s-.1-1.9-4.49-4.92c3.94-5.93,3.41-17.64,3.41-17.64-15.14-3.1-21.45,4.29-23,6.65a70.7,70.7,0,0,0-14.07.39s3.62-2.65,7.3-2.79a21.74,21.74,0,0,0-18,3.75S109,1.16,94.26,4c0,0-2,7.06,5.74,25.74,0,0-10.55,5.62-13.73,13.24,0,0,6.13-6.54,9.53-7.79,0,0-14.33,12.78-9.89,24.1,0,0,.75-6.73,3-8.48a34,34,0,0,0-.66,11.8l-.3-.24a6.21,6.21,0,0,1,.64,1.14l0,.1a16.63,16.63,0,0,1,2.52,1.25c-.15-2-.08-4.23.67-5.44a58.6,58.6,0,0,0,1.2,6.8c.3.25.61.49.89.76,1.75,1.68,3.37,3.41,4.94,5.23l3.08,1.23c4.71,2.76,7.72,4.92,13.13,7,4.95,1.9,9.78,3.9,14.61,6.07,2.32,1,4.25.78,7,1.09,3.8.42,6.37-.7-.16.88a22.88,22.88,0,0,1,5.24-.64l-.05,0h0l1.08-.17a12.71,12.71,0,0,0,2.8-.83,24.12,24.12,0,0,0,9.61-7.4s-2,5.28-2.92,6c0,0,7.8-3.69,10.29-9.63a55.55,55.55,0,0,1-2.34,6.42s8.78-5.66,12.4-14.43c0,0-.46,3.25-.92,3.81,0,0,9.05-2.85,5.16-15.26A5.45,5.45,0,0,1,180.06,59.2ZM104.31,23.65c-4.41-4.9-5.45-15-5.45-15,7.45-1.55,16.41,6.7,16.41,6.7C109.41,18,104.31,23.65,104.31,23.65Zm34.5,32.18c-6.64-.1-12.53-5.31-12.41-13.33s5.66-19.55,12.3-19.45,11.85,11.78,11.73,19.8S145.45,55.93,138.82,55.83ZM162.24,23s-6.84-7.24-9.69-8.83c-1.23-.69,4.88-6.36,13.55-5.62C166.1,8.52,166.7,19.49,162.24,23Z"/><path class="cls-4" d="M88.49,51s-3.18,16.42,3.54,25c0,0-1.33-7.31-.89-10.5,0,0,.93,13.55,19.36,20.5a23.18,23.18,0,0,1-7.46-8.69s22,17.4,42.06,9.66L112,71.24S99.16,53.09,98.79,53,88.49,51,88.49,51Z"/><path class="cls-2" d="M120.25,69.39c6.73,4.8,15.86,6.27,27.19,4.37a.44.44,0,0,0-.15-.86c-12.11,2-21.62.16-28.27-5.58C108.68,58.39,108.85,43,108.85,42.85a.44.44,0,0,0-.87,0c0,.16-.18,16,10.48,25.15Q119.32,68.73,120.25,69.39Z"/><path class="cls-2" d="M103,43.18s4.93-11.41,10.3-1c0,0-5-7.5-10.77,2.83"/><path class="cls-2" d="M151.56,53.68C146,55,157.4,60.54,157.4,60.54A23.37,23.37,0,0,0,162,54.19C163.26,51.07,157.1,52.39,151.56,53.68Z"/><ellipse class="cls-4" cx="135.74" cy="46.1" rx="4.25" ry="1.81" transform="translate(63.86 170.13) rotate(-78.67)"/><ellipse class="cls-2" cx="154.53" cy="46.9" rx="4.25" ry="1.81" transform="translate(78.18 189.21) rotate(-78.67)"/><polygon class="cls-5" points="84.41 127.47 186.04 127.47 185.39 97.34 84.41 127.47"/><rect class="cls-2" x="108.8" y="38.74" width="53.33" height="110.09" rx="3.73" ry="3.73" transform="translate(210.56 -52.86) rotate(82.42)"/><path class="cls-6" d="M87.62,123.87a.59.59,0,0,1-.58-.51L81,77.9a.59.59,0,0,1,.51-.66L183.24,63.7a.6.6,0,0,1,.65.51l6,45.46a.59.59,0,0,1-.51.66L87.7,123.86Z"/><path class="cls-2" d="M103.91,109.85a1.79,1.79,0,0,1-1.32-.27,1.52,1.52,0,0,1-.63-1.09l-.11-.83c-.06-.44-.12-1-.2-1.6s-.16-1.32-.26-2.08-.2-1.51-.28-2.26-.18-1.46-.27-2.15l-.23-1.73q-.14-1.05-.33-2.34c-.13-.86-.24-1.67-.34-2.43s-.19-1.41-.28-2-.13-.87-.15-1a3.61,3.61,0,0,1,.3-2.29A2.77,2.77,0,0,1,102,86.75a4.3,4.3,0,0,1,1.38,0,3,3,0,0,1,1,.39,3.87,3.87,0,0,1,.8.67q.37.4.74.87c.17.23.5.64,1,1.23S108,91.21,108.65,92l2.09,2.59q1.12,1.37,2.12,2.69l1.5,1.94.9,1.18a5.2,5.2,0,0,0,.47.58q.16.15.26.14c.16,0,.22-.17.18-.44s-.17-1.07-.38-2.32-.44-2.8-.69-4.63q-.27-2-.43-3.12t-.26-1.69q-.1-.61-.17-1t-.16-1a1.69,1.69,0,0,1,.25-1.26,1.85,1.85,0,0,1,1.3-.61l.92-.12a2,2,0,0,1,1.32.2,1.6,1.6,0,0,1,.63,1.23l2.41,18.09a3.47,3.47,0,0,1-.37,2.38,3.27,3.27,0,0,1-2.44,1.14,3.35,3.35,0,0,1-2.41-.46,8.24,8.24,0,0,1-1.83-1.78l-1.12-1.41L111,102.09l-1.94-2.48q-1-1.25-1.65-2.17-1-1.29-1.51-2.08l-.82-1.22a6.17,6.17,0,0,0-.4-.57.29.29,0,0,0-.26-.12c-.11,0-.15.14-.12.36s.14,1,.33,2.1.4,2.61.63,4.38l.17,1.29c.09.68.2,1.43.32,2.24s.23,1.61.33,2.38l.23,1.7a1.36,1.36,0,0,1-.41,1.3,2.59,2.59,0,0,1-1.38.56Z"/><path class="cls-2" d="M129.9,97.12a.68.68,0,0,0-.59.34,1.14,1.14,0,0,0-.07.62c0,.2.07.55.12,1s.12,1,.19,1.58a1.25,1.25,0,0,0,.58,1.06,2.41,2.41,0,0,0,1.31.1l1-.13,1.63-.22,1.94-.27,1.94-.27,1.63-.22,1-.13a1.37,1.37,0,0,1,1.27.31,3.61,3.61,0,0,1,.57,1.79,3,3,0,0,1-.09,1.55,1.22,1.22,0,0,1-1,.61l-2.16.27-3.86.5-2.33.31-2.44.34-2.07.29-1.24.17a2.81,2.81,0,0,1-.86,0,1,1,0,0,1-.52-.24,1,1,0,0,1-.28-.45,3.15,3.15,0,0,1-.13-.57c0-.2-.09-.72-.19-1.55s-.21-1.78-.35-2.86l-.4-3.3q-.21-1.68-.37-2.91t-.37-2.68q-.21-1.46-.39-2.8t-.34-2.4c-.1-.7-.18-1.19-.21-1.46a1.9,1.9,0,0,1,.17-1.23q.27-.45,1.39-.6l4.49-.58,4-.48,3.08-.36,1.63-.2a1.4,1.4,0,0,1,1.18.29,2.78,2.78,0,0,1,.6,1.65,2.64,2.64,0,0,1-.19,1.69,1.7,1.7,0,0,1-1.33.69l-.73.08-1.46.18q-.87.12-1.86.21c-.66.07-1.3.14-1.91.22l-1.67.2-1.06.12a1,1,0,0,0-1,1.27l.5,3.74a1.35,1.35,0,0,0,.33.82,1.14,1.14,0,0,0,.94.15l8.77-1.17a1.38,1.38,0,0,1,1.16.24,2.38,2.38,0,0,1,.51,1.4,2.69,2.69,0,0,1-.09,1.4,1.15,1.15,0,0,1-1,.58Z"/><path class="cls-2" d="M165.22,91.66c0-.18,0-.57.06-1.15s.09-1.26.14-2L165.6,86c.06-.9.12-1.75.18-2.55s.1-1.52.14-2.17.07-1.1.08-1.38a2.05,2.05,0,0,1,.59-1.39,3.6,3.6,0,0,1,2-.72,2.87,2.87,0,0,1,1.77.14,1.12,1.12,0,0,1,.58.82,4.42,4.42,0,0,1,0,1.21q-.08.56-.12,1.05t-.16,1.49c-.05.57-.12,1.27-.21,2.09s-.2,1.78-.33,2.88l-.45,3.87q-.26,2.21-.43,3.52T169,96.92q-.1.79-.16,1.29t-.12,1.05a8.39,8.39,0,0,1-.21,1,1.38,1.38,0,0,1-.43.68,2.25,2.25,0,0,1-.84.42,10.17,10.17,0,0,1-1.45.28,3.77,3.77,0,0,1-2.44-.25,3.36,3.36,0,0,1-1.2-1.83q-.34-1-.87-2.51l-1.11-3.12q-.58-1.64-1.14-3.27t-1-2.93a7.7,7.7,0,0,0-.56-1.46A.48.48,0,0,0,157,86a.34.34,0,0,0-.26.22,2.32,2.32,0,0,0-.12.76q-.09,2.19-.18,4.33t-.21,3.92q-.11,1.78-.18,3t-.09,1.67a4.16,4.16,0,0,1-.83,2.48,4,4,0,0,1-2.51,1,8.12,8.12,0,0,1-1.25.08,2.19,2.19,0,0,1-1-.23,2.23,2.23,0,0,1-.76-.68,5.49,5.49,0,0,1-.65-1.28q-.25-.59-.51-1.26l-.68-1.71-1-2.58L145.2,92q-1.13-2.79-1.82-4.46T142.3,84.9q-.39-1-.53-1.42a4.64,4.64,0,0,1-.2-.82,1.07,1.07,0,0,1,.41-1,4.05,4.05,0,0,1,1.86-.58,3.06,3.06,0,0,1,1.79.16,2.28,2.28,0,0,1,1,1.24q.2.46.68,1.76l1.08,2.94q.6,1.63,1.2,3.33l1.05,3q.44,1.26.71,1.95a9.4,9.4,0,0,0,.45,1,.84.84,0,0,0,.35.4.73.73,0,0,0,.37,0c.29,0,.46-.41.49-1.12s.07-1.6.11-2.66c0-.18,0-.52,0-1s.06-1.05.1-1.69.08-1.32.11-2,.06-1.42.1-2.11.07-1.32.09-1.9.05-1,.07-1.39a4.2,4.2,0,0,1,.62-2.49,2.87,2.87,0,0,1,1.94-.9,5,5,0,0,1,1.36,0,2,2,0,0,1,.93.38,2.35,2.35,0,0,1,.64.78,7.92,7.92,0,0,1,.49,1.18q.44,1.26,1.27,3.55t2,5.77l.68,2.09q.27.83.45,1.29a2,2,0,0,0,.34.63.41.41,0,0,0,.37.14q.34,0,.38-1.05T165.22,91.66Z"/><path class="cls-4" d="M70.84,77.91c-.49,3.43.41,6.72,1.52,10C73.07,90,74.4,94.35,77,95c7.14,1.73,2.33-9.85.86-12.52,3.83,2.56,14,8.16,17.59,1.35,3.65-6.5-10.71-7.71-14.24-6.5-.3.07-.68-.15-1-.08,1.53-.38,3.6-2.86,4.47-4.1,1.92-2.75,1.62-7.61-2.54-8.12-2.34-.29-4.45,1.4-5.95,3A19.57,19.57,0,0,0,71,77C70.93,77.34,70.87,77.63,70.84,77.91Z"/><path class="cls-4" d="M209.78,71.2c3.39-.68,6.73,0,10.05,1,2.17.6,6.56,1.68,7.33,4.23,2.13,7-9.7,2.88-12.45,1.56,2.77,3.68,8.93,13.54,2.34,17.49-6.29,4-8.3-10.26-7.29-13.86.06-.31-.19-.67-.13-1-.3,1.55-2.65,3.76-3.84,4.69-2.63,2.07-7.5,2-8.25-2.08-.42-2.32,1.14-4.52,2.65-6.1a19.57,19.57,0,0,1,8.73-5.72C209.21,71.33,209.5,71.26,209.78,71.2Z"/></g></g></svg>