<svg xmlns="http://www.w3.org/2000/svg" viewBox="0 0 180.24 200.67"><defs><style>.cls-1{isolation:isolate;}.cls-2{fill:#fff;}.cls-3{fill:#e83d32;}.cls-4{fill:#231f20;opacity:0.3;mix-blend-mode:multiply;}.cls-5{fill:#e93e32;}.cls-6{fill:#27aae1;}</style></defs><title>Artboard 40 copy</title><g class="cls-1"><g id="Layer_1" data-name="Layer 1"><path class="cls-2" d="M84,116.89v-9.64c-1.41-1.35-3.51-2-6.28-2a23.48,23.48,0,0,0-4.86.58,9.06,9.06,0,0,0-1.56-6.69,7.13,7.13,0,0,0-1.14-1.21A50.42,50.42,0,0,0,84,91.9V25h-.16a22.78,22.78,0,0,0-3.59.33l-3.06-3.44h0a3,3,0,0,0,1.4-4.9c-.64-.71-2.26-1.87-6.05-2C70.69,8.26,65,1.72,64.26.9A3,3,0,0,0,60.63.24C48,6.81,46.06,15.75,45.93,20.15q-.87.63-1.75,1.33a3,3,0,0,0-2.79-.28A23.57,23.57,0,0,0,29.22,34.65C23.94,35,10.56,36.76,2.6,46.31a3,3,0,0,0-.45,3.1c.31.72,3.37,7.06,18.79,15.8-1.27,3.86-3.19,11.38-1.38,17.51a3,3,0,0,0,2.82,2.15c1.13,4.67,3.48,9.27,8.12,11.9a2.92,2.92,0,0,0,2.27.27c3.38,3.77,7.89,7.54,13.12,8.73a3,3,0,0,0,3.34-1.58,3,3,0,0,0,.23-.61,29.71,29.71,0,0,0,5.54.51c.72,0,1.46,0,2.19-.08a20.56,20.56,0,0,0-1.68,10c0,.35.09.7.15,1,.73,4,2.93,7.2,4.94,9.85l.2.27c1.67,2.22,4.47,5.93,8.3,5.93h0l.47,0c3.65-.31,4.89-2.37,5.3-3.57.65-1.89.19-4.15-1.4-6.86h.77C79.57,120.7,82.43,118.92,84,116.89Z"/><path class="cls-2" d="M75.09,136.39c-1.63-1.39-3.25-2.79-4.8-4.17a3,3,0,0,0-4,0c-5.18,4.54-9,11.29-11.29,20.06-2.39,9.06-7.79,13.46-16.51,13.46a28.29,28.29,0,0,1-4.07-.31c-.47-.07-.91-.15-1.34-.23l-.4-.08-.29-.06-.48-.1c-.7-.16-1.24-.29-1.68-.42l-.12,0-.16,0-.37-.11-1-.3-.37-.13-.35-.12a3,3,0,0,0-.39-.15l-.16-.05h0l-.28-.11-.23-.11a16.19,16.19,0,0,0-6.42-1.45,10,10,0,0,0-7.5,3.1c-2.07,2.24-3,5.4-2.7,9.13,1,11.86,11.85,18.9,22.1,19.73.94.08,1.93.12,3.12.13H36c11.52-.07,26.66-5.19,31.82-19.43a53.54,53.54,0,0,0,2.9-16c.31-11,2.81-15.44,4.85-17.2a3,3,0,0,0,0-4.55Z"/><polygon class="cls-2" points="83.85 33.9 69.34 24.31 60 4.03 54.36 15.83 43.24 39.15 25.31 39.71 10.67 43.65 8.01 49.37 23.04 60 28.13 67.12 44.51 89.31 68.45 88.1 83.85 76.83 83.85 33.9"/><path class="cls-3" d="M83.85,27.95a19.44,19.44,0,0,0-4.7.63l-7.41-8.31,4.65-1.32S75.17,17.6,70.11,18C69.45,11.24,62,2.9,62,2.9,49,9.71,48.73,19,49,21.68a67.4,67.4,0,0,0-10.18,8.74s1.09-4.13,3.73-6.45a20.72,20.72,0,0,0-11.07,13.6S14.06,37.25,4.9,48.23c0,0,2.76,6.44,19.73,15.59,0,0-4.42,10.5-2.2,18,0,0,.6-8.52,2.37-11.49,0,0-2.92,18.07,7.17,23.78,0,0-3.5-5.43-2.89-8.07a32.4,32.4,0,0,0,6.6,9.13h-.36a5.92,5.92,0,0,1,1.15.46l.09.05a15.85,15.85,0,0,1,2.61-.59c-1.35-1.42-2.61-3.08-2.78-4.43a55.89,55.89,0,0,0,5,4.31c.37,0,.74,0,1.12,0,2.31.19,4.54.5,6.8.9l3-.94c5.15-.79,8.67-1,13.92-2.72,4.8-1.57,9.58-3,14.46-4.29a9.81,9.81,0,0,0,3.15-1.53ZM24.13,56.69c-6.2-1-13.07-7.84-13.07-7.84,4.58-5.63,16.17-4.91,16.17-4.91C24.49,49.44,24.13,56.69,24.13,56.69ZM60.75,8.35s7,7.75,5.83,13c0,0-9.41-1.24-12.47-.7C52.78,20.89,53.9,13,60.75,8.35ZM69,59.76c-5,3.92-12.46,3.6-17.2-2.4s-7.56-17.87-2.6-21.79,15.85,1.59,20.58,7.6S74,55.84,69,59.76Z"/><path class="cls-3" d="M55.49,97.19S71.85,97,83.85,88.37V81.12L58.44,87.28S38,81.58,37.68,81.71s-8.78,4.76-8.78,4.76,7.52,14.07,17.65,16.37c0,0-5.38-4.61-7-7.23,0,0,8.84,9.47,26.65,3.52A22.09,22.09,0,0,1,55.49,97.19Z"/><path class="cls-2" d="M83.85,69.12c-7.23,7.55-14.81,11.26-22.58,11-13-.38-22.15-11.87-22.24-12a.42.42,0,1,0-.66.51c.09.12,9.46,11.91,22.87,12.3q1.09,0,2.18,0c7-.44,13.88-4,20.43-10.64Z"/><path class="cls-2" d="M34.9,71.94s-3.21-11.4,7-6.92c0,0-8.23-2.52-6.26,8.57"/><path class="cls-2" d="M83.85,43.67c-1.62.38-4.28,3.7-6.71,6.84s3.56,2.48,6.71,1.91Z"/><ellipse class="cls-3" cx="60.88" cy="54.41" rx="1.72" ry="4.05" transform="translate(-18.34 34.63) rotate(-27.77)"/><ellipse class="cls-2" cx="75.27" cy="43.7" rx="1.72" ry="4.05" transform="translate(-11.69 40.1) rotate(-27.77)"/><polygon class="cls-4" points="70.21 139.79 167.1 139.79 166.48 111.06 70.21 139.79"/><path class="cls-5" d="M73.14,138.68l.48.41c-3.25,2.81-5.59,8.65-5.88,19.39A50.38,50.38,0,0,1,65,173.55C60.64,185.64,47.73,191,35.75,191a0,0,0,0,0,0,0h-.23c-1,0-2,0-2.94-.12-9.34-.75-18.56-7-19.36-17-.61-7.51,5-11,12.44-7.79l.06,0,.05,0,.11,0,.12.06.15.06c.1,0,.21.09.34.13l.18.06.28.12.18.06.37.12.07,0,.92.28.18.06.51.15.21.05c.58.18,1.22.33,1.9.48a1.29,1.29,0,0,0,.25.05l.65.14.28.06c.5.1,1,.19,1.55.27,8.15,1.19,19.88,0,23.91-15.35,2.48-9.44,6.44-15.14,10.36-18.57Q70.7,136.6,73.14,138.68Z"/><path class="cls-2" d="M176.75,122,171,78.69A6.56,6.56,0,0,0,163.62,73L66.64,86A6.57,6.57,0,0,0,61,93.32l5.77,43.34a6.56,6.56,0,0,0,7.37,5.64l97-12.9A6.57,6.57,0,0,0,176.75,122Z"/><rect class="cls-6" x="66.4" y="82.25" width="104.95" height="50.84" rx="3.56" ry="3.56" transform="translate(-13.16 16.62) rotate(-7.58)"/><path class="cls-2" d="M90.91,122.74a1.7,1.7,0,0,1-1.25-.26,1.45,1.45,0,0,1-.6-1l-.11-.8c-.06-.42-.12-.93-.19-1.52s-.15-1.26-.25-2-.19-1.44-.27-2.16-.17-1.4-.26-2l-.22-1.65q-.13-1-.31-2.23c-.12-.82-.23-1.59-.32-2.31s-.18-1.34-.26-1.86-.13-.83-.14-.94a3.44,3.44,0,0,1,.29-2.18,2.64,2.64,0,0,1,2.09-1,4.1,4.1,0,0,1,1.32,0,2.85,2.85,0,0,1,1,.37,3.69,3.69,0,0,1,.76.64q.35.38.7.83c.16.22.48.61.95,1.18s1,1.23,1.64,2l2,2.47q1.06,1.31,2,2.57l1.43,1.85.86,1.12a5,5,0,0,0,.45.55q.15.15.25.13c.15,0,.21-.16.18-.42s-.16-1-.36-2.21-.42-2.67-.65-4.42q-.26-1.94-.41-3t-.25-1.62q-.09-.58-.16-1t-.15-1a1.62,1.62,0,0,1,.24-1.2,1.76,1.76,0,0,1,1.24-.58L103,99a1.89,1.89,0,0,1,1.26.19,1.52,1.52,0,0,1,.6,1.17l2.29,17.24a3.31,3.31,0,0,1-.36,2.27,3.12,3.12,0,0,1-2.33,1.09,3.19,3.19,0,0,1-2.3-.44,7.85,7.85,0,0,1-1.74-1.7l-1.07-1.34-1.67-2.12L95.83,113q-.94-1.2-1.58-2.07-.92-1.23-1.44-2L92,107.76a5.88,5.88,0,0,0-.38-.54.28.28,0,0,0-.25-.11c-.11,0-.15.13-.12.34s.14.91.31,2,.38,2.49.6,4.17l.16,1.23c.09.65.19,1.36.3,2.14s.22,1.53.32,2.27l.22,1.62a1.3,1.3,0,0,1-.4,1.24,2.47,2.47,0,0,1-1.31.54Z"/><path class="cls-2" d="M115.68,110.6a.65.65,0,0,0-.57.32,1.09,1.09,0,0,0-.07.59c0,.19.06.52.12,1s.11,1,.18,1.51a1.2,1.2,0,0,0,.55,1,2.3,2.3,0,0,0,1.25.1l.94-.12,1.56-.21,1.84-.26,1.84-.26,1.56-.21.94-.12a1.31,1.31,0,0,1,1.21.3,3.44,3.44,0,0,1,.54,1.71,2.85,2.85,0,0,1-.08,1.48,1.16,1.16,0,0,1-1,.58l-2.06.26-3.68.47-2.22.3-2.33.33-2,.28-1.18.16a2.68,2.68,0,0,1-.82,0,1,1,0,0,1-.49-.23,1,1,0,0,1-.27-.43,3,3,0,0,1-.12-.54c0-.19-.09-.69-.18-1.48s-.2-1.7-.33-2.73l-.39-3.15q-.2-1.61-.35-2.77t-.36-2.56q-.2-1.39-.37-2.67T109,101c-.1-.67-.17-1.13-.2-1.39A1.81,1.81,0,0,1,109,98.4q.25-.43,1.33-.57l4.28-.55,3.85-.46,2.94-.34,1.56-.19a1.34,1.34,0,0,1,1.12.28,2.65,2.65,0,0,1,.57,1.57,2.52,2.52,0,0,1-.18,1.61,1.62,1.62,0,0,1-1.26.66l-.7.08-1.4.17q-.83.11-1.77.2c-.63.06-1.24.13-1.82.21l-1.59.19-1,.12a1,1,0,0,0-.93,1.21l.47,3.57a1.28,1.28,0,0,0,.32.78,1.09,1.09,0,0,0,.89.15L124,106a1.31,1.31,0,0,1,1.1.23,2.27,2.27,0,0,1,.49,1.34,2.57,2.57,0,0,1-.09,1.33,1.1,1.1,0,0,1-.95.55Z"/><path class="cls-2" d="M149.36,105.4c0-.18,0-.54.05-1.09s.08-1.2.14-1.95l.18-2.4c.06-.85.12-1.67.17-2.43s.1-1.45.14-2.06.06-1,.07-1.31a2,2,0,0,1,.57-1.33,3.44,3.44,0,0,1,1.9-.68,2.74,2.74,0,0,1,1.68.14,1.07,1.07,0,0,1,.55.79,4.21,4.21,0,0,1,0,1.15q-.08.54-.11,1t-.16,1.42c0,.55-.11,1.21-.2,2s-.19,1.7-.31,2.75l-.43,3.69q-.25,2.11-.41,3.35t-.26,2q-.1.75-.15,1.23l-.11,1a8,8,0,0,1-.2,1,1.31,1.31,0,0,1-.41.65,2.14,2.14,0,0,1-.8.4,9.69,9.69,0,0,1-1.38.27,3.59,3.59,0,0,1-2.32-.23,3.21,3.21,0,0,1-1.14-1.75q-.33-1-.83-2.4l-1.06-3q-.55-1.56-1.09-3.12t-.93-2.8a7.34,7.34,0,0,0-.53-1.4.45.45,0,0,0-.45-.25.33.33,0,0,0-.25.21,2.22,2.22,0,0,0-.12.72q-.09,2.09-.18,4.13t-.2,3.74q-.1,1.7-.18,2.89t-.09,1.6a4,4,0,0,1-.79,2.36,3.77,3.77,0,0,1-2.39,1,7.74,7.74,0,0,1-1.19.08,2.09,2.09,0,0,1-.92-.22,2.13,2.13,0,0,1-.73-.65,5.23,5.23,0,0,1-.62-1.22q-.24-.56-.49-1.2l-.64-1.63-1-2.46-1.47-3.63q-1.08-2.66-1.74-4.25t-1-2.52q-.37-.92-.51-1.35a4.43,4.43,0,0,1-.19-.78,1,1,0,0,1,.4-1,3.86,3.86,0,0,1,1.77-.55,2.92,2.92,0,0,1,1.7.15,2.18,2.18,0,0,1,.92,1.18q.19.44.65,1.68l1,2.8q.57,1.56,1.15,3.18l1,2.82q.42,1.2.68,1.86a9,9,0,0,0,.43,1,.8.8,0,0,0,.33.38.7.7,0,0,0,.35,0c.28,0,.44-.39.47-1.07s.07-1.52.11-2.54c0-.18,0-.5,0-1s.06-1,.1-1.61.07-1.26.1-1.94.06-1.35.1-2,.06-1.26.09-1.81,0-1,.07-1.33a4,4,0,0,1,.59-2.37,2.74,2.74,0,0,1,1.85-.86,4.73,4.73,0,0,1,1.3,0,1.9,1.9,0,0,1,.89.36,2.24,2.24,0,0,1,.61.74,7.55,7.55,0,0,1,.46,1.13q.42,1.2,1.21,3.39t1.92,5.5l.64,2q.25.79.43,1.23a1.92,1.92,0,0,0,.33.6.39.39,0,0,0,.35.14q.32,0,.36-1T149.36,105.4Z"/><path class="cls-3" d="M58.62,114.54c.59,3.25,2.4,6,4.38,8.57,1.3,1.71,3.79,5.22,6.33,5,7-.59-.86-9.61-3-11.58,4.24,1.16,15.14,3.15,16.32-4.08,1.34-7-12-3.74-14.84-1.59-.25.16-.66.07-.91.23,1.27-.81,2.4-3.67,2.81-5.05.91-3.06-.83-7.37-4.75-6.58-2.2.44-3.6,2.6-4.48,4.49a18.66,18.66,0,0,0-2,9.75C58.53,114,58.57,114.27,58.62,114.54Z"/></g></g></svg>