<svg id="Layer_1" data-name="Layer 1" xmlns="http://www.w3.org/2000/svg" viewBox="0 0 15 15"><defs><style>.cls-1{fill:#8e211d;}.cls-2{fill:none;stroke:#8e211d;stroke-linecap:round;stroke-miterlimit:10;}</style></defs><title>Artboard 1 copy</title><path class="cls-1" d="M13.3,5.42c-.93-.08-1.74.82-1.84,2S12,9.71,12.92,9.79s1.74-.82,1.84-2S14.22,5.5,13.3,5.42Zm0,0"/><path class="cls-1" d="M3.55,7.55c0-1.23-.8-2.17-1.73-2.14S.19,6.43.24,7.66,1,9.83,2,9.8s1.62-1,1.58-2.25Zm0,0"/><path class="cls-1" d="M7.19,4.91a3.65,3.65,0,0,0,.09-1C7.21,2.39,6.21,1.16,5,1.21A1.71,1.71,0,0,0,4,1.67Z"/><path class="cls-1" d="M3.31,2.69a3.54,3.54,0,0,0-.23,1.44C3.14,5.69,4.14,6.91,5.3,6.86a1.83,1.83,0,0,0,1.35-.78Z"/><line class="cls-2" x1="0.68" y1="0.71" x2="13.97" y2="14.17"/><path class="cls-1" d="M7.88,7.32A4.8,4.8,0,0,0,3.24,9.81l0,.09c-.56,1.14-.92,2.82.36,3.63a1.27,1.27,0,0,0,.69.21,4.17,4.17,0,0,0,2-.89,2.58,2.58,0,0,1,2.78.3,2.84,2.84,0,0,0,1.46.63,1.26,1.26,0,0,0,.63-.17,2,2,0,0,0,1-2.06Z"/><path class="cls-1" d="M9,6.76a1.58,1.58,0,0,0,.37.09c1.15.11,2.21-1.06,2.36-2.61s-.67-2.9-1.83-3S7.7,2.29,7.56,3.84a3.46,3.46,0,0,0,.26,1.72Z"/></svg>