<svg id="Layer_1" data-name="Layer 1" xmlns="http://www.w3.org/2000/svg" viewBox="0 0 15 15"><defs><style>.cls-1{fill:#8e211d;}</style></defs><title>Artboard 1</title><path class="cls-1" d="M5.3,6.86c1.16-.05,2-1.36,2-2.92S6.21,1.16,5,1.21s-2,1.36-2,2.92S4.14,6.91,5.3,6.86Zm0,0"/><path class="cls-1" d="M11.47,9.58c-1.74-3.2-6.6-2.92-8.23.23l0,.09c-.56,1.14-.92,2.82.36,3.63a1.27,1.27,0,0,0,.69.21,4.17,4.17,0,0,0,2-.89,2.58,2.58,0,0,1,2.78.3,2.84,2.84,0,0,0,1.46.63,1.26,1.26,0,0,0,.63-.17C12.51,12.81,12.19,10.9,11.47,9.58Zm-.05,0"/><path class="cls-1" d="M9.38,6.85c1.15.11,2.21-1.06,2.36-2.61s-.67-2.9-1.83-3S7.7,2.29,7.56,3.84s.67,2.9,1.83,3Zm0,0"/><path class="cls-1" d="M13.3,5.42c-.93-.08-1.74.82-1.84,2S12,9.71,12.92,9.79s1.74-.82,1.84-2S14.22,5.5,13.3,5.42Zm0,0"/><path class="cls-1" d="M3.55,7.55c0-1.23-.8-2.17-1.73-2.14S.19,6.43.24,7.66,1,9.83,2,9.8s1.62-1,1.58-2.25Zm0,0"/></svg>