<svg id="Layer_1" data-name="Layer 1" xmlns="http://www.w3.org/2000/svg" viewBox="0 0 212.45 101.13"><defs><style>.cls-1{fill:#fff;}.cls-2{fill:#e93e32;}.cls-3{fill:#e83d32;}</style></defs><title>Artboard 46 copy</title><path class="cls-1" d="M78.3,98.16a8.63,8.63,0,0,1-2-.26c-4.07-1-5.69-5.82-6.66-8.7l-.11-.34c-1.11-3.29-2.25-7.15-1.64-11.37,0-.33.11-.69.18-1a22.37,22.37,0,0,1,6-10.49c2.48-2.63,5-4,7.6-4a7.37,7.37,0,0,1,.91.06,6.92,6.92,0,0,1,5.63,4.07A9.2,9.2,0,0,1,87.66,74c3.39.34,8.57,1.42,10.58,4.86a6.16,6.16,0,0,1-.17,6.38,8.89,8.89,0,0,1-8.26,4.78,18.54,18.54,0,0,1-6.41-1.34c.54,2.48.65,5.06-.46,6.92a5.14,5.14,0,0,1-4.63,2.51Z"/><path class="cls-1" d="M2.84,49.12C3,58.77,6.53,70.67,15.62,77.78H63.39a3,3,0,0,0-1.3-2.48,47.7,47.7,0,0,0-15.42-6.6C35.72,66,31,58.69,32.51,47.11c.07-.49.14-1,.23-1.42,0-.09.08-.4.08-.42s0-.21.06-.31l.1-.51c.15-.73.29-1.3.43-1.77l0-.13,0-.17.13-.49.06-.19c.07-.26.15-.52.22-.75s.1-.27.13-.38l0-.14c0-.08.05-.16.08-.23a2.94,2.94,0,0,0,.15-.41l.06-.18h0l0,0,.1-.25.11-.25c2-4.81,1.91-9.28-.3-12.6-2-2.95-5.33-4.57-9.49-4.57-.51,0-1,0-1.58.07C10.86,23.13,3.66,34.58,2.93,45.28c-.07,1-.1,2-.1,3.27a4.87,4.87,0,0,0,0,.51Z"/><path class="cls-1" d="M83.12,60.43a3,3,0,0,0,1.67,1.67c.24,5.26,1.4,11.27,4.81,15.7h80.12a36.87,36.87,0,0,0,2.58-3.26l.32-.08a12.78,12.78,0,0,0,8.25-12.37,3,3,0,0,0,2.2-2.89,23.65,23.65,0,0,0-4.25-12.34,3,3,0,0,0,.38-3.39,22.84,22.84,0,0,0-8.56-8.21l-.24-5.14.26.11a3,3,0,0,0,4.18-2.92c-.06-1-.64-3-3.64-5.59,2.92-6.64,2.61-15.8,2.56-16.94a3,3,0,0,0-2.4-2.8c-.82-.17-1.63-.3-2.43-.42l-.21,0a35.67,35.67,0,0,0-4.9-.37c-9.71,0-15,4.36-17.52,7.3-.8,0-1.63-.07-2.47-.08a3,3,0,0,0-2-2.08,21,21,0,0,0-5.72-.71,25.11,25.11,0,0,0-13,3.65C119.21,6.47,109.79.59,99,.59a27.91,27.91,0,0,0-5.35.51,3,3,0,0,0-2.31,2.12c-.22.79-1.91,8,4.88,25.31C92.7,30.79,86.1,35.65,83.5,41.86a3,3,0,0,0,.92,3.52C82.24,49.92,81.08,55.23,83.12,60.43Z"/><path class="cls-1" d="M210,75.52c-1.22-4-6.13-5.36-9.06-6.16l-.34-.09a30.13,30.13,0,0,0-8-1.33,17.22,17.22,0,0,0-3.37.32c-.35.07-.7.15-1.08.25A22.37,22.37,0,0,0,178,75.05c-2.79,2.94-3.94,5.87-3.42,8.71a7,7,0,0,0,7.25,5.9,9.63,9.63,0,0,0,5-1.43,19,19,0,0,0,3,8.15,6.28,6.28,0,0,0,5.1,2.77h0A6.78,6.78,0,0,0,198.6,98a8.69,8.69,0,0,0,4.21-5.9c.58-2.94-.27-6.15-1.53-9a16.57,16.57,0,0,0,2.71.25c2.48,0,4.3-.76,5.42-2.27C210.16,80.09,210.88,78.3,210,75.52Z"/><path class="cls-2" d="M21.1,77.78h39.3a44.41,44.41,0,0,0-14.46-6.17c-16.11-4-17.55-16.33-16.4-24.89.08-.57.17-1.11.26-1.63,0-.09,0-.2.06-.3s.09-.45.13-.68a1.37,1.37,0,0,1,.05-.26c.15-.71.3-1.39.48-2,0-.08,0-.16.05-.22s.1-.37.15-.54a1.29,1.29,0,0,1,.06-.19c.1-.34.2-.68.29-1l0-.07c0-.14.08-.26.12-.39a.82.82,0,0,0,.06-.19c0-.1.08-.21.12-.3a1.78,1.78,0,0,1,.06-.18c0-.14.09-.26.13-.36a.69.69,0,0,0,.06-.16l.06-.13.05-.11,0-.05,0-.06c3.3-7.85-.45-13.68-8.32-13-10.41,1-16.9,10.71-17.57,20.52-.07,1-.09,2-.09,3.09a2.27,2.27,0,0,0,0,.24h0C6,60.19,10.75,72.29,21.1,77.78Z"/><polygon class="cls-1" points="100.66 34.78 99.32 63.68 118.61 77.8 143.6 77.8 161.67 64.54 168.81 47.17 162.54 27.19 168.35 4.51 155.96 10.38 131.47 22.01 116.51 10.6 101.98 4.12 96.03 7.02 101.23 25.61 100.66 34.78"/><path class="cls-3" d="M85.91,59.33s.75-6.73,3-8.48a34,34,0,0,0-.66,11.8l-.3-.24a6.21,6.21,0,0,1,.64,1.14l0,.1a16.6,16.6,0,0,1,2.52,1.25c-.15-2-.08-4.23.67-5.44a58.64,58.64,0,0,0,1.2,6.8c.3.25.61.49.89.76,1.75,1.68,3.37,3.41,4.94,5.23l3.08,1.23c2.75,1.61,4.92,3,7.32,4.31h52.25a12.19,12.19,0,0,0,1.09-2s-.27.88-.64,2h3.65a31.1,31.1,0,0,0,7.06-10s-.46,3.25-.92,3.81c0,0,9.05-2.85,5.16-15.26a5.45,5.45,0,0,1,3.19,2.86,21.64,21.64,0,0,0-8.26-15.53s3.75.36,4.74,1.23a20,20,0,0,0-8.84-7.74l-.54-11.67,4.66,2s-.1-1.9-4.49-4.92c3.94-5.93,3.41-17.64,3.41-17.64-15.14-3.1-21.45,4.29-23,6.65a70.69,70.69,0,0,0-14.07.39s3.62-2.65,7.3-2.79a21.74,21.74,0,0,0-18,3.75S109,1.16,94.26,4c0,0-2,7.06,5.74,25.74,0,0-10.55,5.62-13.73,13.24,0,0,6.13-6.54,9.53-7.79C95.8,35.23,81.47,48,85.91,59.33ZM166.1,8.52s.6,11-3.86,14.45c0,0-6.83-7.24-9.69-8.83C151.32,13.46,157.43,7.79,166.1,8.52ZM138.71,23c6.64.1,11.85,11.78,11.73,19.8s-5,13.08-11.62,13-12.53-5.31-12.41-13.33S132.07,22.95,138.71,23ZM98.86,8.63c7.45-1.55,16.41,6.7,16.41,6.7-5.86,2.65-11,8.32-11,8.32C99.91,18.75,98.86,8.63,98.86,8.63Z"/><path class="cls-3" d="M91.15,65.55s.43,6.12,6.3,12.24h5.83l-.23-.44.58.44h22.14L112,71.24S99.16,53.09,98.79,53,88.49,51,88.49,51s-3.18,16.42,3.54,25C92,76.05,90.7,68.74,91.15,65.55Z"/><path class="cls-1" d="M120.25,69.39c6.73,4.8,15.86,6.27,27.19,4.37a.44.44,0,0,0-.15-.86c-12.11,2-21.62.16-28.27-5.58C108.68,58.39,108.85,43,108.85,42.85a.44.44,0,0,0-.87,0c0,.16-.18,16,10.48,25.15Q119.32,68.73,120.25,69.39Z"/><path class="cls-1" d="M103,43.18s4.93-11.41,10.3-1c0,0-5-7.5-10.77,2.83"/><path class="cls-1" d="M151.56,53.68C146,55,157.4,60.54,157.4,60.54A23.37,23.37,0,0,0,162,54.19C163.26,51.07,157.1,52.39,151.56,53.68Z"/><ellipse class="cls-3" cx="135.74" cy="46.1" rx="4.25" ry="1.81" transform="translate(63.86 170.13) rotate(-78.67)"/><ellipse class="cls-1" cx="154.53" cy="46.9" rx="4.25" ry="1.81" transform="translate(78.18 189.21) rotate(-78.67)"/><path class="cls-3" d="M70.84,77.91c-.49,3.43.41,6.72,1.52,10C73.07,90,74.4,94.35,77,95c7.14,1.73,2.33-9.85.86-12.52,3.83,2.56,14,8.16,17.59,1.35,3.65-6.5-10.71-7.71-14.24-6.5-.3.07-.68-.15-1-.08,1.53-.38,3.6-2.86,4.47-4.1,1.92-2.75,1.62-7.61-2.54-8.12-2.34-.29-4.45,1.4-5.95,3A19.57,19.57,0,0,0,71,77C70.93,77.34,70.87,77.63,70.84,77.91Z"/><path class="cls-3" d="M189.78,71.2c3.39-.68,6.73,0,10.05,1,2.17.6,6.56,1.68,7.33,4.23,2.13,7-9.7,2.88-12.45,1.56,2.77,3.68,8.93,13.54,2.34,17.49-6.29,4-8.3-10.26-7.29-13.86.06-.31-.19-.67-.13-1-.3,1.55-2.65,3.76-3.84,4.69-2.63,2.07-7.5,2-8.25-2.08-.42-2.32,1.14-4.52,2.65-6.1a19.57,19.57,0,0,1,8.73-5.72C189.21,71.33,189.5,71.26,189.78,71.2Z"/></svg>